<svg width="1118" height="388" viewBox="0 0 1118 388" fill="none" xmlns="http://www.w3.org/2000/svg">
<rect x="0.281982" width="1117.72" height="387.884" fill="#B82C2C"/>
<path d="M150.905 125.05H144.93V119.075H150.905V125.05ZM150.905 131.025H144.93V125.05H150.905V131.025ZM150.905 137H144.93V131.025H150.905V137ZM150.905 142.975H144.93V137H150.905V142.975ZM150.905 148.95H144.93V142.975H150.905V148.95ZM150.905 154.925H144.93V148.95H150.905V154.925ZM150.905 160.9H144.93V154.925H150.905V160.9ZM150.905 166.875H144.93V160.9H150.905V166.875ZM150.905 172.851H144.93V166.875H150.905V172.851ZM150.905 178.826H144.93V172.851H150.905V178.826ZM150.905 184.801H144.93V178.826H150.905V184.801ZM150.905 190.776H144.93V184.801H150.905V190.776ZM150.905 196.751H144.93V190.776H150.905V196.751ZM150.905 202.726H144.93V196.751H150.905V202.726ZM150.905 208.701H144.93V202.726H150.905V208.701ZM156.88 208.701H150.905V202.726H156.88V208.701ZM156.88 202.726H150.905V196.751H156.88V202.726ZM156.88 196.751H150.905V190.776H156.88V196.751ZM156.88 190.776H150.905V184.801H156.88V190.776ZM156.88 184.801H150.905V178.826H156.88V184.801ZM156.88 178.826H150.905V172.851H156.88V178.826ZM156.88 172.851H150.905V166.875H156.88V172.851ZM162.855 166.875H156.88V160.9H162.855V166.875ZM162.855 160.9H156.88V154.925H162.855V160.9ZM162.855 154.925H156.88V148.95H162.855V154.925ZM162.855 148.95H156.88V142.975H162.855V148.95ZM162.855 142.975H156.88V137H162.855V142.975ZM162.855 137H156.88V131.025H162.855V137ZM162.855 131.025H156.88V125.05H162.855V131.025ZM162.855 125.05H156.88V119.075H162.855V125.05ZM168.83 125.05H162.855V119.075H168.83V125.05ZM174.805 125.05H168.83V119.075H174.805V125.05ZM174.805 131.025H168.83V125.05H174.805V131.025ZM174.805 137H168.83V131.025H174.805V137ZM174.805 142.975H168.83V137H174.805V142.975ZM174.805 148.95H168.83V142.975H174.805V148.95ZM174.805 154.925H168.83V148.95H174.805V154.925ZM174.805 160.9H168.83V154.925H174.805V160.9ZM174.805 166.875H168.83V160.9H174.805V166.875ZM168.83 166.875H162.855V160.9H168.83V166.875ZM168.83 172.851H162.855V166.875H168.83V172.851ZM168.83 160.9H162.855V154.925H168.83V160.9ZM168.83 154.925H162.855V148.95H168.83V154.925ZM168.83 148.95H162.855V142.975H168.83V148.95ZM168.83 142.975H162.855V137H168.83V142.975ZM168.83 137H162.855V131.025H168.83V137ZM168.83 131.025H162.855V125.05H168.83V131.025ZM156.88 125.05H150.905V119.075H156.88V125.05ZM156.88 131.025H150.905V125.05H156.88V131.025ZM156.88 137H150.905V131.025H156.88V137ZM156.88 142.975H150.905V137H156.88V142.975ZM156.88 148.95H150.905V142.975H156.88V148.95ZM156.88 154.925H150.905V148.95H156.88V154.925ZM156.88 160.9H150.905V154.925H156.88V160.9ZM156.88 166.875H150.905V160.9H156.88V166.875ZM150.905 226.627H144.93V220.651H150.905V226.627ZM150.905 220.651H144.93V214.676H150.905V220.651ZM150.905 214.676H144.93V208.701H150.905V214.676ZM168.83 238.577H162.855V232.602H168.83V238.577ZM168.83 226.627H162.855V220.651H168.83V226.627ZM168.83 220.651H162.855V214.676H168.83V220.651ZM168.83 214.676H162.855V208.701H168.83V214.676ZM168.83 208.701H162.855V202.726H168.83V208.701ZM168.83 202.726H162.855V196.751H168.83V202.726ZM168.83 196.751H162.855V190.776H168.83V196.751ZM168.83 190.776H162.855V184.801H168.83V190.776ZM174.805 184.801H168.83V178.826H174.805V184.801ZM174.805 178.826H168.83V172.851H174.805V178.826ZM174.805 172.851H168.83V166.875H174.805V172.851ZM174.805 190.776H168.83V184.801H174.805V190.776ZM174.805 196.751H168.83V190.776H174.805V196.751ZM174.805 202.726H168.83V196.751H174.805V202.726ZM174.805 208.701H168.83V202.726H174.805V208.701ZM174.805 214.676H168.83V208.701H174.805V214.676ZM174.805 220.651H168.83V214.676H174.805V220.651ZM174.805 226.627H168.83V220.651H174.805V226.627ZM174.805 232.602H168.83V226.627H174.805V232.602ZM174.805 238.577H168.83V232.602H174.805V238.577ZM174.805 244.552H168.83V238.577H174.805V244.552ZM168.83 232.602H162.855V226.627H168.83V232.602ZM174.805 250.527H168.83V244.552H174.805V250.527ZM174.805 256.502H168.83V250.527H174.805V256.502ZM162.855 238.577H156.88V232.602H162.855V238.577ZM162.855 232.602H156.88V226.627H162.855V232.602ZM162.855 226.627H156.88V220.651H162.855V226.627ZM156.88 220.651H150.905V214.676H156.88V220.651ZM156.88 214.676H150.905V208.701H156.88V214.676ZM156.88 226.627H150.905V220.651H156.88V226.627ZM156.88 232.602H150.905V226.627H156.88V232.602ZM162.855 220.651H156.88V214.676H162.855V220.651ZM162.855 214.676H156.88V208.701H162.855V214.676ZM162.855 208.701H156.88V202.726H162.855V208.701ZM162.855 202.726H156.88V196.751H162.855V202.726ZM162.855 196.751H156.88V190.776H162.855V196.751ZM162.855 190.776H156.88V184.801H162.855V190.776ZM162.855 184.801H156.88V178.826H162.855V184.801ZM162.855 178.826H156.88V172.851H162.855V178.826ZM162.855 172.851H156.88V166.875H162.855V172.851ZM168.83 178.826H162.855V172.851H168.83V178.826ZM168.83 184.801H162.855V178.826H168.83V184.801ZM210.656 256.502H204.681V250.527H210.656V256.502ZM210.656 250.527H204.681V244.552H210.656V250.527ZM210.656 244.552H204.681V238.577H210.656V244.552ZM210.656 238.577H204.681V232.602H210.656V238.577ZM216.631 244.552H210.656V238.577H216.631V244.552ZM216.631 250.527H210.656V244.552H216.631V250.527ZM186.755 268.452H180.78V262.477H186.755V268.452ZM192.731 268.452H186.755V262.477H192.731V268.452ZM198.706 268.452H192.731V262.477H198.706V268.452ZM204.681 262.477H198.706V256.502H204.681V262.477ZM198.706 262.477H192.731V256.502H198.706V262.477ZM192.731 262.477H186.755V256.502H192.731V262.477ZM186.755 262.477H180.78V256.502H186.755V262.477ZM180.78 262.477H174.805V256.502H180.78V262.477ZM180.78 256.502H174.805V250.527H180.78V256.502ZM180.78 250.527H174.805V244.552H180.78V250.527ZM186.755 256.502H180.78V250.527H186.755V256.502ZM192.731 256.502H186.755V250.527H192.731V256.502ZM198.706 256.502H192.731V250.527H198.706V256.502ZM204.681 256.502H198.706V250.527H204.681V256.502ZM204.681 250.527H198.706V244.552H204.681V250.527ZM198.706 250.527H192.731V244.552H198.706V250.527ZM192.731 250.527H186.755V244.552H192.731V250.527ZM186.755 250.527H180.78V244.552H186.755V250.527ZM180.78 244.552H174.805V238.577H180.78V244.552ZM186.755 244.552H180.78V238.577H186.755V244.552ZM204.681 244.552H198.706V238.577H204.681V244.552ZM198.706 244.552H192.731V238.577H198.706V244.552ZM204.681 238.577H198.706V232.602H204.681V238.577ZM180.78 238.577H174.805V232.602H180.78V238.577ZM168.83 250.527H162.855V244.552H168.83V250.527ZM168.83 244.552H162.855V238.577H168.83V244.552ZM162.855 244.552H156.88V238.577H162.855V244.552ZM156.88 238.577H150.905V232.602H156.88V238.577ZM150.905 232.602H144.93V226.627H150.905V232.602ZM180.78 232.602H174.805V226.627H180.78V232.602ZM186.755 238.577H180.78V232.602H186.755V238.577ZM192.731 244.552H186.755V238.577H192.731V244.552ZM198.706 238.577H192.731V232.602H198.706V238.577ZM204.681 232.602H198.706V226.627H204.681V232.602ZM192.731 238.577H186.755V232.602H192.731V238.577ZM186.755 232.602H180.78V226.627H186.755V232.602ZM180.78 226.627H174.805V220.651H180.78V226.627ZM198.706 232.602H192.731V226.627H198.706V232.602ZM204.681 226.627H198.706V220.651H204.681V226.627ZM210.656 125.05H204.681V119.075H210.656V125.05ZM210.656 131.025H204.681V125.05H210.656V131.025ZM210.656 137H204.681V131.025H210.656V137ZM210.656 142.975H204.681V137H210.656V142.975ZM210.656 148.95H204.681V142.975H210.656V148.95ZM210.656 160.9H204.681V154.925H210.656V160.9ZM210.656 166.875H204.681V160.9H210.656V166.875ZM210.656 172.851H204.681V166.875H210.656V172.851ZM210.656 178.826H204.681V172.851H210.656V178.826ZM210.656 184.801H204.681V178.826H210.656V184.801ZM210.656 190.776H204.681V184.801H210.656V190.776ZM210.656 196.751H204.681V190.776H210.656V196.751ZM210.656 202.726H204.681V196.751H210.656V202.726ZM210.656 208.701H204.681V202.726H210.656V208.701ZM216.631 208.701H210.656V202.726H216.631V208.701ZM216.631 202.726H210.656V196.751H216.631V202.726ZM216.631 196.751H210.656V190.776H216.631V196.751ZM216.631 184.801H210.656V178.826H216.631V184.801ZM216.631 178.826H210.656V172.851H216.631V178.826ZM216.631 172.851H210.656V166.875H216.631V172.851ZM222.606 160.9H216.631V154.925H222.606V160.9ZM222.606 154.925H216.631V148.95H222.606V154.925ZM222.606 148.95H216.631V142.975H222.606V148.95ZM222.606 142.975H216.631V137H222.606V142.975ZM222.606 137H216.631V131.025H222.606V137ZM222.606 131.025H216.631V125.05H222.606V131.025ZM222.606 125.05H216.631V119.075H222.606V125.05ZM234.556 125.05H228.581V119.075H234.556V125.05ZM234.556 131.025H228.581V125.05H234.556V131.025ZM234.556 137H228.581V131.025H234.556V137ZM234.556 148.95H228.581V142.975H234.556V148.95ZM234.556 154.925H228.581V148.95H234.556V154.925ZM234.556 166.875H228.581V160.9H234.556V166.875ZM228.581 166.875H222.606V160.9H228.581V166.875ZM228.581 172.851H222.606V166.875H228.581V172.851ZM228.581 160.9H222.606V154.925H228.581V160.9ZM228.581 154.925H222.606V148.95H228.581V154.925ZM228.581 148.95H222.606V142.975H228.581V148.95ZM228.581 142.975H222.606V137H228.581V142.975ZM228.581 137H222.606V131.025H228.581V137ZM228.581 131.025H222.606V125.05H228.581V131.025ZM216.631 125.05H210.656V119.075H216.631V125.05ZM216.631 137H210.656V131.025H216.631V137ZM216.631 142.975H210.656V137H216.631V142.975ZM216.631 148.95H210.656V142.975H216.631V148.95ZM216.631 154.925H210.656V148.95H216.631V154.925ZM216.631 160.9H210.656V154.925H216.631V160.9ZM210.656 226.627H204.681V220.651H210.656V226.627ZM210.656 214.676H204.681V208.701H210.656V214.676ZM228.581 238.577H222.606V232.602H228.581V238.577ZM228.581 226.627H222.606V220.651H228.581V226.627ZM228.581 220.651H222.606V214.676H228.581V220.651ZM228.581 214.676H222.606V208.701H228.581V214.676ZM228.581 208.701H222.606V202.726H228.581V208.701ZM228.581 202.726H222.606V196.751H228.581V202.726ZM228.581 196.751H222.606V190.776H228.581V196.751ZM228.581 190.776H222.606V184.801H228.581V190.776ZM234.556 184.801H228.581V178.826H234.556V184.801ZM234.556 178.826H228.581V172.851H234.556V178.826ZM234.556 172.851H228.581V166.875H234.556V172.851ZM234.556 190.776H228.581V184.801H234.556V190.776ZM234.556 196.751H228.581V190.776H234.556V196.751ZM234.556 202.726H228.581V196.751H234.556V202.726ZM234.556 208.701H228.581V202.726H234.556V208.701ZM234.556 214.676H228.581V208.701H234.556V214.676ZM234.556 220.651H228.581V214.676H234.556V220.651ZM234.556 226.627H228.581V220.651H234.556V226.627ZM234.556 232.602H228.581V226.627H234.556V232.602ZM234.556 238.577H228.581V232.602H234.556V238.577ZM234.556 244.552H228.581V238.577H234.556V244.552ZM228.581 232.602H222.606V226.627H228.581V232.602ZM234.556 250.527H228.581V244.552H234.556V250.527ZM234.556 256.502H228.581V250.527H234.556V256.502ZM222.606 238.577H216.631V232.602H222.606V238.577ZM222.606 232.602H216.631V226.627H222.606V232.602ZM222.606 226.627H216.631V220.651H222.606V226.627ZM216.631 220.651H210.656V214.676H216.631V220.651ZM216.631 214.676H210.656V208.701H216.631V214.676ZM216.631 226.627H210.656V220.651H216.631V226.627ZM216.631 232.602H210.656V226.627H216.631V232.602ZM222.606 220.651H216.631V214.676H222.606V220.651ZM222.606 214.676H216.631V208.701H222.606V214.676ZM222.606 196.751H216.631V190.776H222.606V196.751ZM222.606 190.776H216.631V184.801H222.606V190.776ZM222.606 184.801H216.631V178.826H222.606V184.801ZM222.606 178.826H216.631V172.851H222.606V178.826ZM222.606 172.851H216.631V166.875H222.606V172.851ZM228.581 178.826H222.606V172.851H228.581V178.826ZM228.581 184.801H222.606V178.826H228.581V184.801ZM270.407 125.05H264.432V119.075H270.407V125.05ZM270.407 131.025H264.432V125.05H270.407V131.025ZM270.407 137H264.432V131.025H270.407V137ZM270.407 142.975H264.432V137H270.407V142.975ZM270.407 148.95H264.432V142.975H270.407V148.95ZM270.407 154.925H264.432V148.95H270.407V154.925ZM270.407 160.9H264.432V154.925H270.407V160.9ZM270.407 166.875H264.432V160.9H270.407V166.875ZM270.407 172.851H264.432V166.875H270.407V172.851ZM270.407 178.826H264.432V172.851H270.407V178.826ZM270.407 184.801H264.432V178.826H270.407V184.801ZM270.407 190.776H264.432V184.801H270.407V190.776ZM270.407 196.751H264.432V190.776H270.407V196.751ZM270.407 202.726H264.432V196.751H270.407V202.726ZM270.407 208.701H264.432V202.726H270.407V208.701ZM276.382 208.701H270.407V202.726H276.382V208.701ZM276.382 202.726H270.407V196.751H276.382V202.726ZM276.382 196.751H270.407V190.776H276.382V196.751ZM276.382 190.776H270.407V184.801H276.382V190.776ZM276.382 184.801H270.407V178.826H276.382V184.801ZM276.382 178.826H270.407V172.851H276.382V178.826ZM276.382 172.851H270.407V166.875H276.382V172.851ZM282.357 166.875H276.382V160.9H282.357V166.875ZM282.357 160.9H276.382V154.925H282.357V160.9ZM282.357 154.925H276.382V148.95H282.357V154.925ZM282.357 148.95H276.382V142.975H282.357V148.95ZM282.357 142.975H276.382V137H282.357V142.975ZM282.357 137H276.382V131.025H282.357V137ZM282.357 131.025H276.382V125.05H282.357V131.025ZM282.357 125.05H276.382V119.075H282.357V125.05ZM288.332 125.05H282.357V119.075H288.332V125.05ZM294.307 125.05H288.332V119.075H294.307V125.05ZM294.307 131.025H288.332V125.05H294.307V131.025ZM294.307 137H288.332V131.025H294.307V137ZM294.307 142.975H288.332V137H294.307V142.975ZM294.307 148.95H288.332V142.975H294.307V148.95ZM294.307 154.925H288.332V148.95H294.307V154.925ZM294.307 160.9H288.332V154.925H294.307V160.9ZM294.307 166.875H288.332V160.9H294.307V166.875ZM288.332 166.875H282.357V160.9H288.332V166.875ZM288.332 172.851H282.357V166.875H288.332V172.851ZM288.332 160.9H282.357V154.925H288.332V160.9ZM288.332 154.925H282.357V148.95H288.332V154.925ZM288.332 148.95H282.357V142.975H288.332V148.95ZM288.332 142.975H282.357V137H288.332V142.975ZM288.332 137H282.357V131.025H288.332V137ZM288.332 131.025H282.357V125.05H288.332V131.025ZM276.382 125.05H270.407V119.075H276.382V125.05ZM276.382 131.025H270.407V125.05H276.382V131.025ZM276.382 137H270.407V131.025H276.382V137ZM276.382 142.975H270.407V137H276.382V142.975ZM276.382 148.95H270.407V142.975H276.382V148.95ZM276.382 154.925H270.407V148.95H276.382V154.925ZM276.382 160.9H270.407V154.925H276.382V160.9ZM276.382 166.875H270.407V160.9H276.382V166.875ZM270.407 256.502H264.432V250.527H270.407V256.502ZM270.407 250.527H264.432V244.552H270.407V250.527ZM270.407 244.552H264.432V238.577H270.407V244.552ZM270.407 238.577H264.432V232.602H270.407V238.577ZM270.407 232.602H264.432V226.627H270.407V232.602ZM270.407 226.627H264.432V220.651H270.407V226.627ZM270.407 220.651H264.432V214.676H270.407V220.651ZM270.407 214.676H264.432V208.701H270.407V214.676ZM288.332 238.577H282.357V232.602H288.332V238.577ZM288.332 226.627H282.357V220.651H288.332V226.627ZM288.332 220.651H282.357V214.676H288.332V220.651ZM288.332 214.676H282.357V208.701H288.332V214.676ZM288.332 208.701H282.357V202.726H288.332V208.701ZM288.332 202.726H282.357V196.751H288.332V202.726ZM288.332 196.751H282.357V190.776H288.332V196.751ZM288.332 190.776H282.357V184.801H288.332V190.776ZM294.307 184.801H288.332V178.826H294.307V184.801ZM294.307 178.826H288.332V172.851H294.307V178.826ZM294.307 172.851H288.332V166.875H294.307V172.851ZM294.307 190.776H288.332V184.801H294.307V190.776ZM294.307 196.751H288.332V190.776H294.307V196.751ZM294.307 202.726H288.332V196.751H294.307V202.726ZM294.307 208.701H288.332V202.726H294.307V208.701ZM294.307 214.676H288.332V208.701H294.307V214.676ZM294.307 220.651H288.332V214.676H294.307V220.651ZM294.307 226.627H288.332V220.651H294.307V226.627ZM294.307 232.602H288.332V226.627H294.307V232.602ZM288.332 232.602H282.357V226.627H288.332V232.602ZM282.357 244.552H276.382V238.577H282.357V244.552ZM282.357 238.577H276.382V232.602H282.357V238.577ZM282.357 232.602H276.382V226.627H282.357V232.602ZM282.357 226.627H276.382V220.651H282.357V226.627ZM276.382 220.651H270.407V214.676H276.382V220.651ZM276.382 214.676H270.407V208.701H276.382V214.676ZM276.382 226.627H270.407V220.651H276.382V226.627ZM276.382 232.602H270.407V226.627H276.382V232.602ZM276.382 238.577H270.407V232.602H276.382V238.577ZM276.382 244.552H270.407V238.577H276.382V244.552ZM276.382 250.527H270.407V244.552H276.382V250.527ZM282.357 220.651H276.382V214.676H282.357V220.651ZM282.357 214.676H276.382V208.701H282.357V214.676ZM282.357 208.701H276.382V202.726H282.357V208.701ZM282.357 202.726H276.382V196.751H282.357V202.726ZM282.357 196.751H276.382V190.776H282.357V196.751ZM282.357 190.776H276.382V184.801H282.357V190.776ZM282.357 184.801H276.382V178.826H282.357V184.801ZM282.357 178.826H276.382V172.851H282.357V178.826ZM282.357 172.851H276.382V166.875H282.357V172.851ZM288.332 178.826H282.357V172.851H288.332V178.826ZM288.332 184.801H282.357V178.826H288.332V184.801ZM246.507 268.452H240.531V262.477H246.507V268.452ZM252.482 268.452H246.507V262.477H252.482V268.452ZM258.457 268.452H252.482V262.477H258.457V268.452ZM264.432 262.477H258.457V256.502H264.432V262.477ZM258.457 262.477H252.482V256.502H258.457V262.477ZM252.482 262.477H246.507V256.502H252.482V262.477ZM246.507 262.477H240.531V256.502H246.507V262.477ZM240.531 262.477H234.556V256.502H240.531V262.477ZM240.531 256.502H234.556V250.527H240.531V256.502ZM240.531 250.527H234.556V244.552H240.531V250.527ZM246.507 256.502H240.531V250.527H246.507V256.502ZM252.482 256.502H246.507V250.527H252.482V256.502ZM258.457 256.502H252.482V250.527H258.457V256.502ZM264.432 256.502H258.457V250.527H264.432V256.502ZM264.432 250.527H258.457V244.552H264.432V250.527ZM258.457 250.527H252.482V244.552H258.457V250.527ZM252.482 250.527H246.507V244.552H252.482V250.527ZM246.507 250.527H240.531V244.552H246.507V250.527ZM240.531 244.552H234.556V238.577H240.531V244.552ZM246.507 244.552H240.531V238.577H246.507V244.552ZM264.432 244.552H258.457V238.577H264.432V244.552ZM258.457 244.552H252.482V238.577H258.457V244.552ZM264.432 238.577H258.457V232.602H264.432V238.577ZM240.531 238.577H234.556V232.602H240.531V238.577ZM228.581 250.527H222.606V244.552H228.581V250.527ZM228.581 244.552H222.606V238.577H228.581V244.552ZM222.606 244.552H216.631V238.577H222.606V244.552ZM216.631 238.577H210.656V232.602H216.631V238.577ZM210.656 232.602H204.681V226.627H210.656V232.602ZM240.531 232.602H234.556V226.627H240.531V232.602ZM246.507 238.577H240.531V232.602H246.507V238.577ZM252.482 244.552H246.507V238.577H252.482V244.552ZM258.457 238.577H252.482V232.602H258.457V238.577ZM264.432 232.602H258.457V226.627H264.432V232.602ZM252.482 238.577H246.507V232.602H252.482V238.577ZM246.507 232.602H240.531V226.627H246.507V232.602ZM240.531 226.627H234.556V220.651H240.531V226.627ZM258.457 232.602H252.482V226.627H258.457V232.602ZM264.432 226.627H258.457V220.651H264.432V226.627ZM210.656 214.676V220.651H204.681V214.676H210.656ZM222.606 202.726V208.701H216.631V202.726H222.606ZM222.606 196.751V202.726H216.631V196.751H222.606ZM216.631 184.801V190.776H210.656V184.801H216.631ZM228.581 119.075V125.05H222.606V119.075H228.581ZM216.631 125.05V131.025H210.656V125.05H216.631ZM234.556 137V142.975H228.581V137H234.556ZM210.656 148.95V154.925H204.681V148.95H210.656ZM234.556 154.925V160.9H228.581V154.925H234.556ZM222.606 160.9V166.875H216.631V160.9H222.606ZM216.631 160.9V166.875H210.656V160.9H216.631ZM324.113 119.075V125.05H318.138V119.075H324.113ZM324.113 125.05V131.025H318.138V125.05H324.113ZM324.113 131.025V137H318.138V131.025H324.113ZM342.038 119.075V125.05H336.063V119.075H342.038ZM342.038 125.05V131.025H336.063V125.05H342.038ZM342.038 131.025V137H336.063V131.025H342.038ZM348.013 131.025V137H342.038V131.025H348.013ZM348.013 125.05V131.025H342.038V125.05H348.013ZM348.013 119.075V125.05H342.038V119.075H348.013ZM336.063 119.075V125.05H330.088V119.075H336.063ZM330.088 119.075V125.05H324.113V119.075H330.088ZM330.088 125.05V131.025H324.113V125.05H330.088ZM336.063 125.05V131.025H330.088V125.05H336.063ZM336.063 131.025V137H330.088V131.025H336.063ZM330.088 131.025V137H324.113V131.025H330.088ZM324.113 137V142.975H318.138V137H324.113ZM330.088 137V142.975H324.113V137H330.088ZM336.063 137V142.975H330.088V137H336.063ZM342.038 137V142.975H336.063V137H342.038ZM348.013 137V142.975H342.038V137H348.013ZM324.113 262.477V268.452H318.138V262.477H324.113ZM324.113 256.502V262.477H318.138V256.502H324.113ZM324.113 250.527V256.502H318.138V250.527H324.113ZM324.113 244.552V250.527H318.138V244.552H324.113ZM324.113 238.577V244.552H318.138V238.577H324.113ZM324.113 232.602V238.577H318.138V232.602H324.113ZM324.113 226.627V232.602H318.138V226.627H324.113ZM324.113 220.651V226.627H318.138V220.651H324.113ZM324.113 214.676V220.651H318.138V214.676H324.113ZM324.113 208.701V214.676H318.138V208.701H324.113ZM324.113 202.726V208.701H318.138V202.726H324.113ZM324.113 196.751V202.726H318.138V196.751H324.113ZM324.113 190.776V196.751H318.138V190.776H324.113ZM324.113 184.801V190.776H318.138V184.801H324.113ZM324.113 178.826V184.801H318.138V178.826H324.113ZM330.088 178.826V184.801H324.113V178.826H330.088ZM330.088 184.801V190.776H324.113V184.801H330.088ZM330.088 190.776V196.751H324.113V190.776H330.088ZM330.088 196.751V202.726H324.113V196.751H330.088ZM330.088 202.726V208.701H324.113V202.726H330.088ZM330.088 208.701V214.676H324.113V208.701H330.088ZM330.088 214.676V220.651H324.113V214.676H330.088ZM336.063 220.651V226.627H330.088V220.651H336.063ZM336.063 226.627V232.602H330.088V226.627H336.063ZM336.063 232.602V238.577H330.088V232.602H336.063ZM336.063 238.577V244.552H330.088V238.577H336.063ZM336.063 244.552V250.527H330.088V244.552H336.063ZM336.063 250.527V256.502H330.088V250.527H336.063ZM336.063 256.502V262.477H330.088V256.502H336.063ZM336.063 262.477V268.452H330.088V262.477H336.063ZM342.038 262.477V268.452H336.063V262.477H342.038ZM348.013 262.477V268.452H342.038V262.477H348.013ZM348.013 256.502V262.477H342.038V256.502H348.013ZM348.013 250.527V256.502H342.038V250.527H348.013ZM348.013 244.552V250.527H342.038V244.552H348.013ZM348.013 238.577V244.552H342.038V238.577H348.013ZM348.013 232.602V238.577H342.038V232.602H348.013ZM348.013 226.627V232.602H342.038V226.627H348.013ZM348.013 220.651V226.627H342.038V220.651H348.013ZM342.038 220.651V226.627H336.063V220.651H342.038ZM342.038 214.676V220.651H336.063V214.676H342.038ZM342.038 226.627V232.602H336.063V226.627H342.038ZM342.038 232.602V238.577H336.063V232.602H342.038ZM342.038 238.577V244.552H336.063V238.577H342.038ZM342.038 244.552V250.527H336.063V244.552H342.038ZM342.038 250.527V256.502H336.063V250.527H342.038ZM342.038 256.502V262.477H336.063V256.502H342.038ZM330.088 262.477V268.452H324.113V262.477H330.088ZM330.088 256.502V262.477H324.113V256.502H330.088ZM330.088 250.527V256.502H324.113V250.527H330.088ZM330.088 244.552V250.527H324.113V244.552H330.088ZM330.088 238.577V244.552H324.113V238.577H330.088ZM330.088 232.602V238.577H324.113V232.602H330.088ZM330.088 226.627V232.602H324.113V226.627H330.088ZM330.088 220.651V226.627H324.113V220.651H330.088ZM324.113 166.875V172.851H318.138V166.875H324.113ZM324.113 172.851V178.826H318.138V172.851H324.113ZM342.038 166.875V172.851H336.063V166.875H342.038ZM342.038 172.851V178.826H336.063V172.851H342.038ZM342.038 178.826V184.801H336.063V178.826H342.038ZM342.038 184.801V190.776H336.063V184.801H342.038ZM342.038 190.776V196.751H336.063V190.776H342.038ZM342.038 196.751V202.726H336.063V196.751H342.038ZM348.013 202.726V208.701H342.038V202.726H348.013ZM348.013 208.701V214.676H342.038V208.701H348.013ZM348.013 214.676V220.651H342.038V214.676H348.013ZM348.013 196.751V202.726H342.038V196.751H348.013ZM348.013 190.776V196.751H342.038V190.776H348.013ZM348.013 184.801V190.776H342.038V184.801H348.013ZM348.013 178.826V184.801H342.038V178.826H348.013ZM348.013 172.851V178.826H342.038V172.851H348.013ZM348.013 166.875V172.851H342.038V166.875H348.013ZM330.088 166.875V172.851H324.113V166.875H330.088ZM330.088 172.851V178.826H324.113V172.851H330.088ZM336.063 166.875V172.851H330.088V166.875H336.063ZM336.063 172.851V178.826H330.088V172.851H336.063ZM336.063 178.826V184.801H330.088V178.826H336.063ZM336.063 184.801V190.776H330.088V184.801H336.063ZM336.063 190.776V196.751H330.088V190.776H336.063ZM336.063 196.751V202.726H330.088V196.751H336.063ZM336.063 202.726V208.701H330.088V202.726H336.063ZM336.063 208.701V214.676H330.088V208.701H336.063ZM336.063 214.676V220.651H330.088V214.676H336.063ZM342.038 208.701V214.676H336.063V208.701H342.038ZM342.038 202.726V208.701H336.063V202.726H342.038ZM342.038 160.9V166.875H336.063V160.9H342.038ZM348.013 160.9V166.875H342.038V160.9H348.013ZM336.063 160.9V166.875H330.088V160.9H336.063ZM330.088 160.9V166.875H324.113V160.9H330.088ZM324.113 160.9V166.875H318.138V160.9H324.113ZM377.941 262.477V268.452H371.966V262.477H377.941ZM377.941 256.502V262.477H371.966V256.502H377.941ZM377.941 250.527V256.502H371.966V250.527H377.941ZM377.941 244.552V250.527H371.966V244.552H377.941ZM377.941 238.577V244.552H371.966V238.577H377.941ZM377.941 232.602V238.577H371.966V232.602H377.941ZM377.941 226.627V232.602H371.966V226.627H377.941ZM377.941 220.651V226.627H371.966V220.651H377.941ZM377.941 214.676V220.651H371.966V214.676H377.941ZM377.941 208.701V214.676H371.966V208.701H377.941ZM377.941 202.726V208.701H371.966V202.726H377.941ZM377.941 196.751V202.726H371.966V196.751H377.941ZM377.941 190.776V196.751H371.966V190.776H377.941ZM377.941 184.801V190.776H371.966V184.801H377.941ZM377.941 178.826V184.801H371.966V178.826H377.941ZM383.916 178.826V184.801H377.941V178.826H383.916ZM383.916 184.801V190.776H377.941V184.801H383.916ZM383.916 190.776V196.751H377.941V190.776H383.916ZM383.916 196.751V202.726H377.941V196.751H383.916ZM383.916 202.726V208.701H377.941V202.726H383.916ZM383.916 208.701V214.676H377.941V208.701H383.916ZM383.916 214.676V220.651H377.941V214.676H383.916ZM389.892 220.651V226.627H383.916V220.651H389.892ZM389.892 226.627V232.602H383.916V226.627H389.892ZM389.892 232.602V238.577H383.916V232.602H389.892ZM389.892 238.577V244.552H383.916V238.577H389.892ZM389.892 244.552V250.527H383.916V244.552H389.892ZM389.892 250.527V256.502H383.916V250.527H389.892ZM389.892 256.502V262.477H383.916V256.502H389.892ZM389.892 262.477V268.452H383.916V262.477H389.892ZM395.867 262.477V268.452H389.892V262.477H395.867ZM401.842 262.477V268.452H395.867V262.477H401.842ZM401.842 256.502V262.477H395.867V256.502H401.842ZM401.842 250.527V256.502H395.867V250.527H401.842ZM401.842 244.552V250.527H395.867V244.552H401.842ZM401.842 238.577V244.552H395.867V238.577H401.842ZM401.842 232.602V238.577H395.867V232.602H401.842ZM401.842 226.627V232.602H395.867V226.627H401.842ZM401.842 220.651V226.627H395.867V220.651H401.842ZM395.867 220.651V226.627H389.892V220.651H395.867ZM395.867 214.676V220.651H389.892V214.676H395.867ZM395.867 226.627V232.602H389.892V226.627H395.867ZM395.867 232.602V238.577H389.892V232.602H395.867ZM395.867 238.577V244.552H389.892V238.577H395.867ZM395.867 244.552V250.527H389.892V244.552H395.867ZM395.867 250.527V256.502H389.892V250.527H395.867ZM395.867 256.502V262.477H389.892V256.502H395.867ZM383.916 262.477V268.452H377.941V262.477H383.916ZM383.916 256.502V262.477H377.941V256.502H383.916ZM383.916 250.527V256.502H377.941V250.527H383.916ZM383.916 244.552V250.527H377.941V244.552H383.916ZM383.916 238.577V244.552H377.941V238.577H383.916ZM383.916 232.602V238.577H377.941V232.602H383.916ZM383.916 226.627V232.602H377.941V226.627H383.916ZM383.916 220.651V226.627H377.941V220.651H383.916ZM377.941 119.075V125.05H371.966V119.075H377.941ZM377.941 125.05V131.025H371.966V125.05H377.941ZM377.941 131.025V137H371.966V131.025H377.941ZM377.941 137V142.975H371.966V137H377.941ZM377.941 142.975V148.95H371.966V142.975H377.941ZM377.941 148.95V154.925H371.966V148.95H377.941ZM377.941 154.925V160.9H371.966V154.925H377.941ZM377.941 160.9V166.875H371.966V160.9H377.941ZM377.941 166.875V172.851H371.966V166.875H377.941ZM377.941 172.851V178.826H371.966V172.851H377.941ZM395.867 119.075V125.05H389.892V119.075H395.867ZM395.867 125.05V131.025H389.892V125.05H395.867ZM395.867 131.025V137H389.892V131.025H395.867ZM395.867 137V142.975H389.892V137H395.867ZM395.867 142.975V148.95H389.892V142.975H395.867ZM395.867 148.95V154.925H389.892V148.95H395.867ZM395.867 160.9V166.875H389.892V160.9H395.867ZM395.867 166.875V172.851H389.892V166.875H395.867ZM395.867 172.851V178.826H389.892V172.851H395.867ZM395.867 178.826V184.801H389.892V178.826H395.867ZM395.867 184.801V190.776H389.892V184.801H395.867ZM395.867 190.776V196.751H389.892V190.776H395.867ZM395.867 196.751V202.726H389.892V196.751H395.867ZM401.842 202.726V208.701H395.867V202.726H401.842ZM401.842 208.701V214.676H395.867V208.701H401.842ZM401.842 214.676V220.651H395.867V214.676H401.842ZM401.842 196.751V202.726H395.867V196.751H401.842ZM401.842 190.776V196.751H395.867V190.776H401.842ZM401.842 184.801V190.776H395.867V184.801H401.842ZM401.842 178.826V184.801H395.867V178.826H401.842ZM401.842 172.851V178.826H395.867V172.851H401.842ZM401.842 166.875V172.851H395.867V166.875H401.842ZM401.842 160.9V166.875H395.867V160.9H401.842ZM401.842 154.925V160.9H395.867V154.925H401.842ZM401.842 148.95V154.925H395.867V148.95H401.842ZM401.842 142.975V148.95H395.867V142.975H401.842ZM395.867 154.925V160.9H389.892V154.925H395.867ZM401.842 137V142.975H395.867V137H401.842ZM401.842 131.025V137H395.867V131.025H401.842ZM401.842 125.05V131.025H395.867V125.05H401.842ZM401.842 119.075V125.05H395.867V119.075H401.842ZM389.892 119.075V125.05H383.916V119.075H389.892ZM383.916 119.075V125.05H377.941V119.075H383.916ZM383.916 125.05V131.025H377.941V125.05H383.916ZM389.892 125.05V131.025H383.916V125.05H389.892ZM389.892 131.025V137H383.916V131.025H389.892ZM389.892 137V142.975H383.916V137H389.892ZM389.892 142.975V148.95H383.916V142.975H389.892ZM389.892 148.95V154.925H383.916V148.95H389.892ZM389.892 154.925V160.9H383.916V154.925H389.892ZM389.892 160.9V166.875H383.916V160.9H389.892ZM383.916 166.875V172.851H377.941V166.875H383.916ZM383.916 172.851V178.826H377.941V172.851H383.916ZM383.916 160.9V166.875H377.941V160.9H383.916ZM383.916 154.925V160.9H377.941V154.925H383.916ZM383.916 148.95V154.925H377.941V148.95H383.916ZM383.916 142.975V148.95H377.941V142.975H383.916ZM383.916 137V142.975H377.941V137H383.916ZM383.916 131.025V137H377.941V131.025H383.916ZM389.892 166.875V172.851H383.916V166.875H389.892ZM389.892 172.851V178.826H383.916V172.851H389.892ZM389.892 178.826V184.801H383.916V178.826H389.892ZM389.892 184.801V190.776H383.916V184.801H389.892ZM389.892 190.776V196.751H383.916V190.776H389.892ZM389.892 196.751V202.726H383.916V196.751H389.892ZM389.892 202.726V208.701H383.916V202.726H389.892ZM389.892 208.701V214.676H383.916V208.701H389.892ZM389.892 214.676V220.651H383.916V214.676H389.892ZM395.867 208.701V214.676H389.892V208.701H395.867ZM395.867 202.726V208.701H389.892V202.726H395.867ZM485.546 172.851V178.826H479.571V172.851H485.546ZM485.546 166.875V172.851H479.571V166.875H485.546ZM485.546 160.9V166.875H479.571V160.9H485.546ZM479.571 160.9V166.875H473.596V160.9H479.571ZM479.571 154.925V160.9H473.596V154.925H479.571ZM479.571 166.875V172.851H473.596V166.875H479.571ZM473.596 166.875V172.851H467.621V166.875H473.596ZM473.596 172.851V178.826H467.621V172.851H473.596ZM479.571 172.851V178.826H473.596V172.851H479.571ZM467.621 172.851V178.826H461.645V172.851H467.621ZM467.621 166.875V172.851H461.645V166.875H467.621ZM467.621 160.9V166.875H461.645V160.9H467.621ZM467.621 154.925V160.9H461.645V154.925H467.621ZM473.596 154.925V160.9H467.621V154.925H473.596ZM473.596 160.9V166.875H467.621V160.9H473.596ZM461.645 154.925V160.9H455.67V154.925H461.645ZM455.67 154.925V160.9H449.695V154.925H455.67ZM449.695 154.925V160.9H443.72V154.925H449.695ZM449.695 160.9V166.875H443.72V160.9H449.695ZM449.695 166.875V172.851H443.72V166.875H449.695ZM449.695 172.851V178.826H443.72V172.851H449.695ZM455.67 172.851V178.826H449.695V172.851H455.67ZM461.645 172.851V178.826H455.67V172.851H461.645ZM461.645 166.875V172.851H455.67V166.875H461.645ZM461.645 160.9V166.875H455.67V160.9H461.645ZM455.67 160.9V166.875H449.695V160.9H455.67ZM455.67 166.875V172.851H449.695V166.875H455.67ZM443.72 166.875V172.851H437.745V166.875H443.72ZM443.72 160.9V166.875H437.745V160.9H443.72ZM437.745 160.9V166.875H431.77V160.9H437.745ZM437.745 166.875V172.851H431.77V166.875H437.745ZM431.77 166.875V172.851H425.795V166.875H431.77ZM431.77 172.851V178.826H425.795V172.851H431.77ZM431.77 178.826V184.801H425.795V178.826H431.77ZM437.745 178.826V184.801H431.77V178.826H437.745ZM437.745 172.851V178.826H431.77V172.851H437.745ZM443.72 172.851V178.826H437.745V172.851H443.72ZM443.72 178.826V184.801H437.745V178.826H443.72ZM449.695 178.826V184.801H443.72V178.826H449.695ZM455.67 178.826V184.801H449.695V178.826H455.67ZM425.795 178.826V184.801H419.82V178.826H425.795ZM425.795 184.801V190.776H419.82V184.801H425.795ZM425.795 190.776V196.751H419.82V190.776H425.795ZM425.795 196.751V202.726H419.82V196.751H425.795ZM425.795 202.726V208.701H419.82V202.726H425.795ZM425.795 208.701V214.676H419.82V208.701H425.795ZM425.795 214.676V220.651H419.82V214.676H425.795ZM425.795 220.651V226.627H419.82V220.651H425.795ZM425.795 226.627V232.602H419.82V226.627H425.795ZM425.795 232.602V238.577H419.82V232.602H425.795ZM431.77 232.602V238.577H425.795V232.602H431.77ZM431.77 238.577V244.552H425.795V238.577H431.77ZM425.795 238.577V244.552H419.82V238.577H425.795ZM437.745 238.577V244.552H431.77V238.577H437.745ZM443.72 238.577V244.552H437.745V238.577H443.72ZM449.695 238.577V244.552H443.72V238.577H449.695ZM455.67 238.577V244.552H449.695V238.577H455.67ZM449.695 232.602V238.577H443.72V232.602H449.695ZM449.695 226.627V232.602H443.72V226.627H449.695ZM449.695 220.651V226.627H443.72V220.651H449.695ZM449.695 214.676V220.651H443.72V214.676H449.695ZM449.695 208.701V214.676H443.72V208.701H449.695ZM449.695 202.726V208.701H443.72V202.726H449.695ZM449.695 196.751V202.726H443.72V196.751H449.695ZM449.695 190.776V196.751H443.72V190.776H449.695ZM449.695 184.801V190.776H443.72V184.801H449.695ZM443.72 184.801V190.776H437.745V184.801H443.72ZM437.745 184.801V190.776H431.77V184.801H437.745ZM431.77 184.801V190.776H425.795V184.801H431.77ZM431.77 190.776V196.751H425.795V190.776H431.77ZM431.77 196.751V202.726H425.795V196.751H431.77ZM431.77 202.726V208.701H425.795V202.726H431.77ZM431.77 208.701V214.676H425.795V208.701H431.77ZM431.77 214.676V220.651H425.795V214.676H431.77ZM431.77 220.651V226.627H425.795V220.651H431.77ZM431.77 226.627V232.602H425.795V226.627H431.77ZM437.745 232.602V238.577H431.77V232.602H437.745ZM443.72 232.602V238.577H437.745V232.602H443.72ZM443.72 226.627V232.602H437.745V226.627H443.72ZM443.72 220.651V226.627H437.745V220.651H443.72ZM443.72 214.676V220.651H437.745V214.676H443.72ZM443.72 208.701V214.676H437.745V208.701H443.72ZM437.745 208.701V214.676H431.77V208.701H437.745ZM437.745 202.726V208.701H431.77V202.726H437.745ZM437.745 196.751V202.726H431.77V196.751H437.745ZM437.745 190.776V196.751H431.77V190.776H437.745ZM443.72 190.776V196.751H437.745V190.776H443.72ZM443.72 196.751V202.726H437.745V196.751H443.72ZM443.72 202.726V208.701H437.745V202.726H443.72ZM437.745 220.651V226.627H431.77V220.651H437.745ZM437.745 226.627V232.602H431.77V226.627H437.745ZM437.745 214.676V220.651H431.77V214.676H437.745ZM485.546 244.552V250.527H479.571V244.552H485.546ZM479.571 262.477V268.452H473.596V262.477H479.571ZM473.596 262.477V268.452H467.621V262.477H473.596ZM467.621 262.477V268.452H461.645V262.477H467.621ZM461.645 262.477V268.452H455.67V262.477H461.645ZM455.67 262.477V268.452H449.695V262.477H455.67ZM449.695 262.477V268.452H443.72V262.477H449.695ZM455.67 256.502V262.477H449.695V256.502H455.67ZM461.645 256.502V262.477H455.67V256.502H461.645ZM467.621 256.502V262.477H461.645V256.502H467.621ZM473.596 256.502V262.477H467.621V256.502H473.596ZM479.571 256.502V262.477H473.596V256.502H479.571ZM485.546 256.502V262.477H479.571V256.502H485.546ZM485.546 250.527V256.502H479.571V250.527H485.546ZM479.571 250.527V256.502H473.596V250.527H479.571ZM473.596 250.527V256.502H467.621V250.527H473.596ZM467.621 250.527V256.502H461.645V250.527H467.621ZM461.645 250.527V256.502H455.67V250.527H461.645ZM455.67 250.527V256.502H449.695V250.527H455.67ZM449.695 256.502V262.477H443.72V256.502H449.695ZM443.72 256.502V262.477H437.745V256.502H443.72ZM437.745 256.502V262.477H431.77V256.502H437.745ZM437.745 250.527V256.502H431.77V250.527H437.745ZM431.77 250.527V256.502H425.795V250.527H431.77ZM431.77 244.552V250.527H425.795V244.552H431.77ZM437.745 244.552V250.527H431.77V244.552H437.745ZM443.72 244.552V250.527H437.745V244.552H443.72ZM449.695 244.552V250.527H443.72V244.552H449.695ZM455.67 244.552V250.527H449.695V244.552H455.67ZM461.645 244.552V250.527H455.67V244.552H461.645ZM467.621 244.552V250.527H461.645V244.552H467.621ZM473.596 244.552V250.527H467.621V244.552H473.596ZM479.571 244.552V250.527H473.596V244.552H479.571ZM449.695 250.527V256.502H443.72V250.527H449.695ZM443.72 250.527V256.502H437.745V250.527H443.72ZM491.521 250.527V256.502H485.546V250.527H491.521ZM491.521 244.552V250.527H485.546V244.552H491.521ZM491.521 238.577V244.552H485.546V238.577H491.521ZM491.521 232.602V238.577H485.546V232.602H491.521ZM491.521 226.627V232.602H485.546V226.627H491.521ZM491.521 220.651V226.627H485.546V220.651H491.521ZM491.521 214.676V220.651H485.546V214.676H491.521ZM491.521 208.701V214.676H485.546V208.701H491.521ZM491.521 202.726V208.701H485.546V202.726H491.521ZM491.521 196.751V202.726H485.546V196.751H491.521ZM491.521 190.776V196.751H485.546V190.776H491.521ZM491.521 184.801V190.776H485.546V184.801H491.521ZM491.521 178.826V184.801H485.546V178.826H491.521ZM497.496 178.826V184.801H491.521V178.826H497.496ZM497.496 184.801V190.776H491.521V184.801H497.496ZM497.496 190.776V196.751H491.521V190.776H497.496ZM497.496 196.751V202.726H491.521V196.751H497.496ZM497.496 202.726V208.701H491.521V202.726H497.496ZM497.496 208.701V214.676H491.521V208.701H497.496ZM497.496 214.676V220.651H491.521V214.676H497.496ZM503.471 220.651V226.627H497.496V220.651H503.471ZM503.471 226.627V232.602H497.496V226.627H503.471ZM503.471 232.602V238.577H497.496V232.602H503.471ZM503.471 238.577V244.552H497.496V238.577H503.471ZM503.471 244.552V250.527H497.496V244.552H503.471ZM503.471 250.527V256.502H497.496V250.527H503.471ZM503.471 256.502V262.477H497.496V256.502H503.471ZM503.471 262.477V268.452H497.496V262.477H503.471ZM509.446 262.477V268.452H503.471V262.477H509.446ZM515.421 262.477V268.452H509.446V262.477H515.421ZM515.421 256.502V262.477H509.446V256.502H515.421ZM515.421 250.527V256.502H509.446V250.527H515.421ZM515.421 244.552V250.527H509.446V244.552H515.421ZM515.421 238.577V244.552H509.446V238.577H515.421ZM515.421 232.602V238.577H509.446V232.602H515.421ZM515.421 226.627V232.602H509.446V226.627H515.421ZM515.421 220.651V226.627H509.446V220.651H515.421ZM509.446 220.651V226.627H503.471V220.651H509.446ZM509.446 214.676V220.651H503.471V214.676H509.446ZM509.446 226.627V232.602H503.471V226.627H509.446ZM509.446 232.602V238.577H503.471V232.602H509.446ZM509.446 238.577V244.552H503.471V238.577H509.446ZM509.446 244.552V250.527H503.471V244.552H509.446ZM509.446 250.527V256.502H503.471V250.527H509.446ZM509.446 256.502V262.477H503.471V256.502H509.446ZM497.496 250.527V256.502H491.521V250.527H497.496ZM497.496 244.552V250.527H491.521V244.552H497.496ZM497.496 238.577V244.552H491.521V238.577H497.496ZM497.496 232.602V238.577H491.521V232.602H497.496ZM497.496 226.627V232.602H491.521V226.627H497.496ZM497.496 220.651V226.627H491.521V220.651H497.496ZM491.521 119.075V125.05H485.546V119.075H491.521ZM491.521 125.05V131.025H485.546V125.05H491.521ZM491.521 131.025V137H485.546V131.025H491.521ZM491.521 137V142.975H485.546V137H491.521ZM491.521 142.975V148.95H485.546V142.975H491.521ZM491.521 148.95V154.925H485.546V148.95H491.521ZM491.521 160.9V166.875H485.546V160.9H491.521ZM491.521 172.851V178.826H485.546V172.851H491.521ZM509.446 119.075V125.05H503.471V119.075H509.446ZM509.446 125.05V131.025H503.471V125.05H509.446ZM509.446 131.025V137H503.471V131.025H509.446ZM509.446 137V142.975H503.471V137H509.446ZM509.446 142.975V148.95H503.471V142.975H509.446ZM509.446 148.95V154.925H503.471V148.95H509.446ZM509.446 160.9V166.875H503.471V160.9H509.446ZM509.446 166.875V172.851H503.471V166.875H509.446ZM509.446 172.851V178.826H503.471V172.851H509.446ZM509.446 184.801V190.776H503.471V184.801H509.446ZM509.446 190.776V196.751H503.471V190.776H509.446ZM509.446 196.751V202.726H503.471V196.751H509.446ZM515.421 202.726V208.701H509.446V202.726H515.421ZM515.421 208.701V214.676H509.446V208.701H515.421ZM515.421 214.676V220.651H509.446V214.676H515.421ZM515.421 196.751V202.726H509.446V196.751H515.421ZM515.421 190.776V196.751H509.446V190.776H515.421ZM515.421 178.826V184.801H509.446V178.826H515.421ZM515.421 172.851V178.826H509.446V172.851H515.421ZM515.421 166.875V172.851H509.446V166.875H515.421ZM515.421 160.9V166.875H509.446V160.9H515.421ZM515.421 154.925V160.9H509.446V154.925H515.421ZM515.421 148.95V154.925H509.446V148.95H515.421ZM515.421 142.975V148.95H509.446V142.975H515.421ZM509.446 154.925V160.9H503.471V154.925H509.446ZM515.421 137V142.975H509.446V137H515.421ZM515.421 131.025V137H509.446V131.025H515.421ZM515.421 125.05V131.025H509.446V125.05H515.421ZM515.421 119.075V125.05H509.446V119.075H515.421ZM503.471 119.075V125.05H497.496V119.075H503.471ZM497.496 119.075V125.05H491.521V119.075H497.496ZM497.496 125.05V131.025H491.521V125.05H497.496ZM503.471 125.05V131.025H497.496V125.05H503.471ZM503.471 131.025V137H497.496V131.025H503.471ZM503.471 137V142.975H497.496V137H503.471ZM503.471 142.975V148.95H497.496V142.975H503.471ZM503.471 148.95V154.925H497.496V148.95H503.471ZM503.471 154.925V160.9H497.496V154.925H503.471ZM503.471 160.9V166.875H497.496V160.9H503.471ZM497.496 166.875V172.851H491.521V166.875H497.496ZM497.496 172.851V178.826H491.521V172.851H497.496ZM497.496 160.9V166.875H491.521V160.9H497.496ZM497.496 154.925V160.9H491.521V154.925H497.496ZM497.496 148.95V154.925H491.521V148.95H497.496ZM497.496 142.975V148.95H491.521V142.975H497.496ZM497.496 137V142.975H491.521V137H497.496ZM497.496 131.025V137H491.521V131.025H497.496ZM503.471 172.851V178.826H497.496V172.851H503.471ZM503.471 184.801V190.776H497.496V184.801H503.471ZM503.471 190.776V196.751H497.496V190.776H503.471ZM503.471 196.751V202.726H497.496V196.751H503.471ZM503.471 202.726V208.701H497.496V202.726H503.471ZM503.471 208.701V214.676H497.496V208.701H503.471ZM503.471 214.676V220.651H497.496V214.676H503.471ZM509.446 208.701V214.676H503.471V208.701H509.446ZM509.446 202.726V208.701H503.471V202.726H509.446ZM491.521 154.925V160.9H485.546V154.925H491.521ZM515.421 184.801V190.776H509.446V184.801H515.421ZM491.521 166.875V172.851H485.546V166.875H491.521ZM503.471 166.875V172.851H497.496V166.875H503.471ZM503.471 178.826V184.801H497.496V178.826H503.471ZM509.446 178.826V184.801H503.471V178.826H509.446ZM491.521 256.502V262.477H485.546V256.502H491.521ZM497.496 256.502V262.477H491.521V256.502H497.496ZM497.496 262.477V268.452H491.521V262.477H497.496ZM485.546 154.925V160.9H479.571V154.925H485.546ZM485.546 238.577V244.552H479.571V238.577H485.546ZM491.521 262.477V268.452H485.546V262.477H491.521ZM545.408 154.925V160.9H539.433V154.925H545.408ZM551.383 154.925V160.9H545.408V154.925H551.383ZM557.358 154.925V160.9H551.383V154.925H557.358ZM563.333 154.925V160.9H557.358V154.925H563.333ZM563.333 160.9V166.875H557.358V160.9H563.333ZM569.308 160.9V166.875H563.333V160.9H569.308ZM569.308 166.875V172.851H563.333V166.875H569.308ZM569.308 154.925V160.9H563.333V154.925H569.308ZM569.308 172.851V178.826H563.333V172.851H569.308ZM569.308 178.826V184.801H563.333V178.826H569.308ZM569.308 184.801V190.776H563.333V184.801H569.308ZM569.308 190.776V196.751H563.333V190.776H569.308ZM569.308 196.751V202.726H563.333V196.751H569.308ZM569.308 202.726V208.701H563.333V202.726H569.308ZM569.308 208.701V214.676H563.333V208.701H569.308ZM569.308 214.676V220.651H563.333V214.676H569.308ZM569.308 220.651V226.627H563.333V220.651H569.308ZM563.333 220.651V226.627H557.358V220.651H563.333ZM557.358 226.627V232.602H551.383V226.627H557.358ZM551.383 226.627V232.602H545.408V226.627H551.383ZM545.408 226.627V232.602H539.433V226.627H545.408ZM545.408 220.651V226.627H539.433V220.651H545.408ZM545.408 214.676V220.651H539.433V214.676H545.408ZM545.408 208.701V214.676H539.433V208.701H545.408ZM545.408 202.726V208.701H539.433V202.726H545.408ZM551.383 202.726V208.701H545.408V202.726H551.383ZM551.383 196.751V202.726H545.408V196.751H551.383ZM551.383 190.776V196.751H545.408V190.776H551.383ZM551.383 184.801V190.776H545.408V184.801H551.383ZM551.383 178.826V184.801H545.408V178.826H551.383ZM551.383 172.851V178.826H545.408V172.851H551.383ZM551.383 166.875V172.851H545.408V166.875H551.383ZM551.383 160.9V166.875H545.408V160.9H551.383ZM545.408 160.9V166.875H539.433V160.9H545.408ZM545.408 166.875V172.851H539.433V166.875H545.408ZM545.408 172.851V178.826H539.433V172.851H545.408ZM545.408 178.826V184.801H539.433V178.826H545.408ZM545.408 184.801V190.776H539.433V184.801H545.408ZM545.408 190.776V196.751H539.433V190.776H545.408ZM545.408 196.751V202.726H539.433V196.751H545.408ZM557.358 184.801V190.776H551.383V184.801H557.358ZM557.358 178.826V184.801H551.383V178.826H557.358ZM557.358 172.851V178.826H551.383V172.851H557.358ZM557.358 166.875V172.851H551.383V166.875H557.358ZM557.358 160.9V166.875H551.383V160.9H557.358ZM563.333 184.801V190.776H557.358V184.801H563.333ZM563.333 190.776V196.751H557.358V190.776H563.333ZM563.333 178.826V184.801H557.358V178.826H563.333ZM563.333 172.851V178.826H557.358V172.851H563.333ZM563.333 166.875V172.851H557.358V166.875H563.333ZM557.358 202.726V208.701H551.383V202.726H557.358ZM557.358 196.751V202.726H551.383V196.751H557.358ZM557.358 190.776V196.751H551.383V190.776H557.358ZM563.333 196.751V202.726H557.358V196.751H563.333ZM563.333 202.726V208.701H557.358V202.726H563.333ZM563.333 208.701V214.676H557.358V208.701H563.333ZM557.358 214.676V220.651H551.383V214.676H557.358ZM557.358 220.651V226.627H551.383V220.651H557.358ZM557.358 208.701V214.676H551.383V208.701H557.358ZM551.383 208.701V214.676H545.408V208.701H551.383ZM551.383 214.676V220.651H545.408V214.676H551.383ZM551.383 220.651V226.627H545.408V220.651H551.383ZM563.333 214.676V220.651H557.358V214.676H563.333ZM557.358 232.602V238.577H551.383V232.602H557.358ZM551.383 232.602V238.577H545.408V232.602H551.383ZM563.333 232.602V238.577H557.358V232.602H563.333ZM563.333 226.627V232.602H557.358V226.627H563.333ZM569.308 226.627V232.602H563.333V226.627H569.308ZM575.283 226.627V232.602H569.308V226.627H575.283ZM575.283 232.602V238.577H569.308V232.602H575.283ZM569.308 232.602V238.577H563.333V232.602H569.308ZM581.258 232.602V238.577H575.283V232.602H581.258ZM557.358 238.577V244.552H551.383V238.577H557.358ZM563.333 238.577V244.552H557.358V238.577H563.333ZM569.308 238.577V244.552H563.333V238.577H569.308ZM575.283 238.577V244.552H569.308V238.577H575.283ZM581.258 238.577V244.552H575.283V238.577H581.258ZM587.234 238.577V244.552H581.258V238.577H587.234ZM593.209 238.577V244.552H587.234V238.577H593.209ZM599.184 238.577V244.552H593.209V238.577H599.184ZM605.159 238.577V244.552H599.184V238.577H605.159ZM611.134 238.577V244.552H605.159V238.577H611.134ZM605.159 232.602V238.577H599.184V232.602H605.159ZM599.184 232.602V238.577H593.209V232.602H599.184ZM593.209 232.602V238.577H587.234V232.602H593.209ZM599.184 226.627V232.602H593.209V226.627H599.184ZM581.258 262.477V268.452H575.283V262.477H581.258ZM581.258 256.502V262.477H575.283V256.502H581.258ZM581.258 250.527V256.502H575.283V250.527H581.258ZM587.234 244.552V250.527H581.258V244.552H587.234ZM593.209 244.552V250.527H587.234V244.552H593.209ZM593.209 250.527V256.502H587.234V250.527H593.209ZM593.209 256.502V262.477H587.234V256.502H593.209ZM593.209 262.477V268.452H587.234V262.477H593.209ZM587.234 262.477V268.452H581.258V262.477H587.234ZM587.234 250.527V256.502H581.258V250.527H587.234ZM587.234 256.502V262.477H581.258V256.502H587.234ZM599.184 250.527V256.502H593.209V250.527H599.184ZM599.184 244.552V250.527H593.209V244.552H599.184ZM605.159 244.552V250.527H599.184V244.552H605.159ZM611.134 244.552V250.527H605.159V244.552H611.134ZM605.159 250.527V256.502H599.184V250.527H605.159ZM599.184 256.502V262.477H593.209V256.502H599.184ZM563.333 244.552V250.527H557.358V244.552H563.333ZM569.308 244.552V250.527H563.333V244.552H569.308ZM569.308 250.527V256.502H563.333V250.527H569.308ZM575.283 250.527V256.502H569.308V250.527H575.283ZM575.283 256.502V262.477H569.308V256.502H575.283ZM581.258 244.552V250.527H575.283V244.552H581.258ZM575.283 244.552V250.527H569.308V244.552H575.283ZM605.159 154.925V160.9H599.184V154.925H605.159ZM611.134 154.925V160.9H605.159V154.925H611.134ZM617.109 154.925V160.9H611.134V154.925H617.109ZM623.084 160.9V166.875H617.109V160.9H623.084ZM629.059 172.851V178.826H623.084V172.851H629.059ZM629.059 178.826V184.801H623.084V178.826H629.059ZM629.059 184.801V190.776H623.084V184.801H629.059ZM629.059 196.751V202.726H623.084V196.751H629.059ZM629.059 202.726V208.701H623.084V202.726H629.059ZM629.059 208.701V214.676H623.084V208.701H629.059ZM629.059 214.676V220.651H623.084V214.676H629.059ZM629.059 220.651V226.627H623.084V220.651H629.059ZM623.084 220.651V226.627H617.109V220.651H623.084ZM617.109 226.627V232.602H611.134V226.627H617.109ZM611.134 226.627V232.602H605.159V226.627H611.134ZM605.159 226.627V232.602H599.184V226.627H605.159ZM605.159 220.651V226.627H599.184V220.651H605.159ZM605.159 214.676V220.651H599.184V214.676H605.159ZM605.159 202.726V208.701H599.184V202.726H605.159ZM611.134 202.726V208.701H605.159V202.726H611.134ZM611.134 196.751V202.726H605.159V196.751H611.134ZM611.134 190.776V196.751H605.159V190.776H611.134ZM611.134 184.801V190.776H605.159V184.801H611.134ZM611.134 178.826V184.801H605.159V178.826H611.134ZM611.134 172.851V178.826H605.159V172.851H611.134ZM611.134 166.875V172.851H605.159V166.875H611.134ZM611.134 160.9V166.875H605.159V160.9H611.134ZM605.159 160.9V166.875H599.184V160.9H605.159ZM605.159 166.875V172.851H599.184V166.875H605.159ZM605.159 172.851V178.826H599.184V172.851H605.159ZM605.159 178.826V184.801H599.184V178.826H605.159ZM605.159 184.801V190.776H599.184V184.801H605.159ZM605.159 196.751V202.726H599.184V196.751H605.159ZM617.109 184.801V190.776H611.134V184.801H617.109ZM617.109 178.826V184.801H611.134V178.826H617.109ZM617.109 172.851V178.826H611.134V172.851H617.109ZM617.109 166.875V172.851H611.134V166.875H617.109ZM623.084 184.801V190.776H617.109V184.801H623.084ZM623.084 190.776V196.751H617.109V190.776H623.084ZM623.084 178.826V184.801H617.109V178.826H623.084ZM623.084 172.851V178.826H617.109V172.851H623.084ZM617.109 202.726V208.701H611.134V202.726H617.109ZM617.109 196.751V202.726H611.134V196.751H617.109ZM617.109 190.776V196.751H611.134V190.776H617.109ZM623.084 196.751V202.726H617.109V196.751H623.084ZM623.084 202.726V208.701H617.109V202.726H623.084ZM623.084 208.701V214.676H617.109V208.701H623.084ZM617.109 214.676V220.651H611.134V214.676H617.109ZM617.109 220.651V226.627H611.134V220.651H617.109ZM617.109 208.701V214.676H611.134V208.701H617.109ZM611.134 208.701V214.676H605.159V208.701H611.134ZM611.134 214.676V220.651H605.159V214.676H611.134ZM611.134 220.651V226.627H605.159V220.651H611.134ZM623.084 214.676V220.651H617.109V214.676H623.084ZM617.109 232.602V238.577H611.134V232.602H617.109ZM623.084 232.602V238.577H617.109V232.602H623.084ZM623.084 226.627V232.602H617.109V226.627H623.084ZM629.059 226.627V232.602H623.084V226.627H629.059ZM635.034 226.627V232.602H629.059V226.627H635.034ZM635.034 232.602V238.577H629.059V232.602H635.034ZM629.059 232.602V238.577H623.084V232.602H629.059ZM641.009 232.602V238.577H635.034V232.602H641.009ZM623.084 238.577V244.552H617.109V238.577H623.084ZM629.059 238.577V244.552H623.084V238.577H629.059ZM635.034 238.577V244.552H629.059V238.577H635.034ZM641.009 238.577V244.552H635.034V238.577H641.009ZM646.985 238.577V244.552H641.009V238.577H646.985ZM652.96 238.577V244.552H646.985V238.577H652.96ZM658.935 238.577V244.552H652.96V238.577H658.935ZM664.91 238.577V244.552H658.935V238.577H664.91ZM670.885 238.577V244.552H664.91V238.577H670.885ZM676.86 238.577V244.552H670.885V238.577H676.86ZM670.885 232.602V238.577H664.91V232.602H670.885ZM664.91 232.602V238.577H658.935V232.602H664.91ZM658.935 232.602V238.577H652.96V232.602H658.935ZM652.96 232.602V238.577H646.985V232.602H652.96ZM658.935 226.627V232.602H652.96V226.627H658.935ZM664.91 226.627V232.602H658.935V226.627H664.91ZM670.885 226.627V232.602H664.91V226.627H670.885ZM676.86 226.627V232.602H670.885V226.627H676.86ZM682.835 226.627V232.602H676.86V226.627H682.835ZM682.835 232.602V238.577H676.86V232.602H682.835ZM676.86 232.602V238.577H670.885V232.602H676.86ZM688.81 226.627V232.602H682.835V226.627H688.81ZM641.009 262.477V268.452H635.034V262.477H641.009ZM641.009 256.502V262.477H635.034V256.502H641.009ZM641.009 250.527V256.502H635.034V250.527H641.009ZM646.985 244.552V250.527H641.009V244.552H646.985ZM652.96 244.552V250.527H646.985V244.552H652.96ZM652.96 250.527V256.502H646.985V250.527H652.96ZM652.96 256.502V262.477H646.985V256.502H652.96ZM652.96 262.477V268.452H646.985V262.477H652.96ZM646.985 262.477V268.452H641.009V262.477H646.985ZM646.985 250.527V256.502H641.009V250.527H646.985ZM646.985 256.502V262.477H641.009V256.502H646.985ZM658.935 250.527V256.502H652.96V250.527H658.935ZM658.935 244.552V250.527H652.96V244.552H658.935ZM664.91 244.552V250.527H658.935V244.552H664.91ZM670.885 244.552V250.527H664.91V244.552H670.885ZM664.91 250.527V256.502H658.935V250.527H664.91ZM658.935 256.502V262.477H652.96V256.502H658.935ZM623.084 244.552V250.527H617.109V244.552H623.084ZM629.059 244.552V250.527H623.084V244.552H629.059ZM629.059 250.527V256.502H623.084V250.527H629.059ZM635.034 250.527V256.502H629.059V250.527H635.034ZM635.034 256.502V262.477H629.059V256.502H635.034ZM641.009 244.552V250.527H635.034V244.552H641.009ZM635.034 244.552V250.527H629.059V244.552H635.034ZM664.91 220.651V226.627H658.935V220.651H664.91ZM664.91 214.676V220.651H658.935V214.676H664.91ZM664.91 208.701V214.676H658.935V208.701H664.91ZM664.91 202.726V208.701H658.935V202.726H664.91ZM670.885 202.726V208.701H664.91V202.726H670.885ZM676.86 202.726V208.701H670.885V202.726H676.86ZM682.835 202.726V208.701H676.86V202.726H682.835ZM688.81 202.726V208.701H682.835V202.726H688.81ZM688.81 208.701V214.676H682.835V208.701H688.81ZM688.81 214.676V220.651H682.835V214.676H688.81ZM688.81 220.651V226.627H682.835V220.651H688.81ZM682.835 220.651V226.627H676.86V220.651H682.835ZM676.86 220.651V226.627H670.885V220.651H676.86ZM670.885 220.651V226.627H664.91V220.651H670.885ZM676.86 214.676V220.651H670.885V214.676H676.86ZM682.835 214.676V220.651H676.86V214.676H682.835ZM682.835 208.701V214.676H676.86V208.701H682.835ZM676.86 208.701V214.676H670.885V208.701H676.86ZM670.885 208.701V214.676H664.91V208.701H670.885ZM670.885 214.676V220.651H664.91V214.676H670.885ZM664.91 196.751V202.726H658.935V196.751H664.91ZM664.91 190.776V196.751H658.935V190.776H664.91ZM664.91 184.801V190.776H658.935V184.801H664.91ZM664.91 178.826V184.801H658.935V178.826H664.91ZM664.91 172.851V178.826H658.935V172.851H664.91ZM664.91 166.875V172.851H658.935V166.875H664.91ZM664.91 160.9V166.875H658.935V160.9H664.91ZM664.91 154.925V160.9H658.935V154.925H664.91ZM670.885 160.9V166.875H664.91V160.9H670.885ZM670.885 154.925V160.9H664.91V154.925H670.885ZM676.86 154.925V160.9H670.885V154.925H676.86ZM682.835 154.925V160.9H676.86V154.925H682.835ZM682.835 160.9V166.875H676.86V160.9H682.835ZM682.835 166.875V172.851H676.86V166.875H682.835ZM688.81 166.875V172.851H682.835V166.875H688.81ZM688.81 172.851V178.826H682.835V172.851H688.81ZM688.81 178.826V184.801H682.835V178.826H688.81ZM688.81 184.801V190.776H682.835V184.801H688.81ZM688.81 190.776V196.751H682.835V190.776H688.81ZM688.81 196.751V202.726H682.835V196.751H688.81ZM688.81 160.9V166.875H682.835V160.9H688.81ZM688.81 154.925V160.9H682.835V154.925H688.81ZM676.86 160.9V166.875H670.885V160.9H676.86ZM676.86 166.875V172.851H670.885V166.875H676.86ZM676.86 172.851V178.826H670.885V172.851H676.86ZM676.86 178.826V184.801H670.885V178.826H676.86ZM676.86 184.801V190.776H670.885V184.801H676.86ZM676.86 190.776V196.751H670.885V190.776H676.86ZM670.885 190.776V196.751H664.91V190.776H670.885ZM670.885 196.751V202.726H664.91V196.751H670.885ZM670.885 184.801V190.776H664.91V184.801H670.885ZM670.885 178.826V184.801H664.91V178.826H670.885ZM670.885 172.851V178.826H664.91V172.851H670.885ZM670.885 166.875V172.851H664.91V166.875H670.885ZM682.835 172.851V178.826H676.86V172.851H682.835ZM682.835 178.826V184.801H676.86V178.826H682.835ZM682.835 184.801V190.776H676.86V184.801H682.835ZM682.835 190.776V196.751H676.86V190.776H682.835ZM682.835 196.751V202.726H676.86V196.751H682.835ZM676.86 196.751V202.726H670.885V196.751H676.86ZM623.084 154.925V160.9H617.109V154.925H623.084ZM629.059 154.925V160.9H623.084V154.925H629.059ZM629.059 160.9V166.875H623.084V160.9H629.059ZM629.059 166.875V172.851H623.084V166.875H629.059ZM623.084 166.875V172.851H617.109V166.875H623.084ZM605.159 190.776V196.751H599.184V190.776H605.159ZM605.159 208.701V214.676H599.184V208.701H605.159ZM629.059 190.776V196.751H623.084V190.776H629.059ZM617.109 160.9V166.875H611.134V160.9H617.109ZM617.109 238.577V244.552H611.134V238.577H617.109ZM611.134 232.602V238.577H605.159V232.602H611.134ZM778.367 190.776V196.751H772.392V190.776H778.367ZM784.342 190.776V196.751H778.367V190.776H784.342ZM790.317 190.776V196.751H784.342V190.776H790.317ZM796.292 190.776V196.751H790.317V190.776H796.292ZM802.267 190.776V196.751H796.292V190.776H802.267ZM802.267 184.801V190.776H796.292V184.801H802.267ZM802.267 178.826V184.801H796.292V178.826H802.267ZM796.292 178.826V184.801H790.317V178.826H796.292ZM790.317 178.826V184.801H784.342V178.826H790.317ZM784.342 178.826V184.801H778.367V178.826H784.342ZM784.342 184.801V190.776H778.367V184.801H784.342ZM778.367 184.801V190.776H772.392V184.801H778.367ZM790.317 184.801V190.776H784.342V184.801H790.317ZM796.292 184.801V190.776H790.317V184.801H796.292ZM778.367 178.826V184.801H772.392V178.826H778.367ZM772.392 178.826V184.801H766.417V178.826H772.392ZM772.392 172.851V178.826H766.417V172.851H772.392ZM778.367 172.851V178.826H772.392V172.851H778.367ZM784.342 172.851V178.826H778.367V172.851H784.342ZM790.317 172.851V178.826H784.342V172.851H790.317ZM796.292 172.851V178.826H790.317V172.851H796.292ZM796.292 166.875V172.851H790.317V166.875H796.292ZM790.317 166.875V172.851H784.342V166.875H790.317ZM784.342 166.875V172.851H778.367V166.875H784.342ZM778.367 166.875V172.851H772.392V166.875H778.367ZM772.392 166.875V172.851H766.417V166.875H772.392ZM784.342 160.9V166.875H778.367V160.9H784.342ZM790.317 160.9V166.875H784.342V160.9H790.317ZM778.367 160.9V166.875H772.392V160.9H778.367ZM778.367 154.925V160.9H772.392V154.925H778.367ZM772.392 154.925V160.9H766.417V154.925H772.392ZM772.392 160.9V166.875H766.417V160.9H772.392ZM766.417 160.9V166.875H760.442V160.9H766.417ZM766.417 154.925V160.9H760.442V154.925H766.417ZM766.417 166.875V172.851H760.442V166.875H766.417ZM760.442 166.875V172.851H754.467V166.875H760.442ZM760.442 172.851V178.826H754.467V172.851H760.442ZM766.417 172.851V178.826H760.442V172.851H766.417ZM754.467 172.851V178.826H748.491V172.851H754.467ZM754.467 166.875V172.851H748.491V166.875H754.467ZM754.467 160.9V166.875H748.491V160.9H754.467ZM754.467 154.925V160.9H748.491V154.925H754.467ZM760.442 154.925V160.9H754.467V154.925H760.442ZM760.442 160.9V166.875H754.467V160.9H760.442ZM748.491 154.925V160.9H742.516V154.925H748.491ZM742.516 154.925V160.9H736.541V154.925H742.516ZM736.541 154.925V160.9H730.566V154.925H736.541ZM736.541 160.9V166.875H730.566V160.9H736.541ZM736.541 166.875V172.851H730.566V166.875H736.541ZM736.541 172.851V178.826H730.566V172.851H736.541ZM742.516 172.851V178.826H736.541V172.851H742.516ZM748.491 172.851V178.826H742.516V172.851H748.491ZM748.491 166.875V172.851H742.516V166.875H748.491ZM748.491 160.9V166.875H742.516V160.9H748.491ZM742.516 160.9V166.875H736.541V160.9H742.516ZM742.516 166.875V172.851H736.541V166.875H742.516ZM730.566 166.875V172.851H724.591V166.875H730.566ZM730.566 160.9V166.875H724.591V160.9H730.566ZM724.591 160.9V166.875H718.616V160.9H724.591ZM724.591 166.875V172.851H718.616V166.875H724.591ZM718.616 166.875V172.851H712.641V166.875H718.616ZM718.616 172.851V178.826H712.641V172.851H718.616ZM718.616 178.826V184.801H712.641V178.826H718.616ZM724.591 178.826V184.801H718.616V178.826H724.591ZM724.591 172.851V178.826H718.616V172.851H724.591ZM730.566 172.851V178.826H724.591V172.851H730.566ZM730.566 178.826V184.801H724.591V178.826H730.566ZM736.541 178.826V184.801H730.566V178.826H736.541ZM742.516 178.826V184.801H736.541V178.826H742.516ZM712.641 178.826V184.801H706.666V178.826H712.641ZM712.641 184.801V190.776H706.666V184.801H712.641ZM712.641 190.776V196.751H706.666V190.776H712.641ZM712.641 196.751V202.726H706.666V196.751H712.641ZM712.641 202.726V208.701H706.666V202.726H712.641ZM712.641 208.701V214.676H706.666V208.701H712.641ZM712.641 214.676V220.651H706.666V214.676H712.641ZM712.641 220.651V226.627H706.666V220.651H712.641ZM712.641 226.627V232.602H706.666V226.627H712.641ZM712.641 232.602V238.577H706.666V232.602H712.641ZM718.616 232.602V238.577H712.641V232.602H718.616ZM718.616 238.577V244.552H712.641V238.577H718.616ZM712.641 238.577V244.552H706.666V238.577H712.641ZM724.591 238.577V244.552H718.616V238.577H724.591ZM730.566 238.577V244.552H724.591V238.577H730.566ZM736.541 238.577V244.552H730.566V238.577H736.541ZM742.516 238.577V244.552H736.541V238.577H742.516ZM736.541 232.602V238.577H730.566V232.602H736.541ZM736.541 226.627V232.602H730.566V226.627H736.541ZM736.541 220.651V226.627H730.566V220.651H736.541ZM736.541 214.676V220.651H730.566V214.676H736.541ZM736.541 208.701V214.676H730.566V208.701H736.541ZM736.541 202.726V208.701H730.566V202.726H736.541ZM736.541 196.751V202.726H730.566V196.751H736.541ZM736.541 190.776V196.751H730.566V190.776H736.541ZM736.541 184.801V190.776H730.566V184.801H736.541ZM730.566 184.801V190.776H724.591V184.801H730.566ZM724.591 184.801V190.776H718.616V184.801H724.591ZM718.616 184.801V190.776H712.641V184.801H718.616ZM718.616 190.776V196.751H712.641V190.776H718.616ZM718.616 196.751V202.726H712.641V196.751H718.616ZM718.616 202.726V208.701H712.641V202.726H718.616ZM718.616 208.701V214.676H712.641V208.701H718.616ZM718.616 214.676V220.651H712.641V214.676H718.616ZM718.616 220.651V226.627H712.641V220.651H718.616ZM718.616 226.627V232.602H712.641V226.627H718.616ZM724.591 232.602V238.577H718.616V232.602H724.591ZM730.566 232.602V238.577H724.591V232.602H730.566ZM730.566 226.627V232.602H724.591V226.627H730.566ZM730.566 220.651V226.627H724.591V220.651H730.566ZM730.566 214.676V220.651H724.591V214.676H730.566ZM730.566 208.701V214.676H724.591V208.701H730.566ZM724.591 208.701V214.676H718.616V208.701H724.591ZM724.591 202.726V208.701H718.616V202.726H724.591ZM724.591 196.751V202.726H718.616V196.751H724.591ZM724.591 190.776V196.751H718.616V190.776H724.591ZM730.566 190.776V196.751H724.591V190.776H730.566ZM730.566 196.751V202.726H724.591V196.751H730.566ZM730.566 202.726V208.701H724.591V202.726H730.566ZM724.591 220.651V226.627H718.616V220.651H724.591ZM724.591 226.627V232.602H718.616V226.627H724.591ZM724.591 214.676V220.651H718.616V214.676H724.591ZM778.367 232.602V238.577H772.392V232.602H778.367ZM784.342 232.602V238.577H778.367V232.602H784.342ZM790.317 232.602V238.577H784.342V232.602H790.317ZM796.292 232.602V238.577H790.317V232.602H796.292ZM802.267 232.602V238.577H796.292V232.602H802.267ZM802.267 238.577V244.552H796.292V238.577H802.267ZM796.292 238.577V244.552H790.317V238.577H796.292ZM790.317 238.577V244.552H784.342V238.577H790.317ZM784.342 238.577V244.552H778.367V238.577H784.342ZM778.367 238.577V244.552H772.392V238.577H778.367ZM772.392 238.577V244.552H766.417V238.577H772.392ZM772.392 244.552V250.527H766.417V244.552H772.392ZM778.367 244.552V250.527H772.392V244.552H778.367ZM784.342 244.552V250.527H778.367V244.552H784.342ZM790.317 244.552V250.527H784.342V244.552H790.317ZM790.317 250.527V256.502H784.342V250.527H790.317ZM796.292 250.527V256.502H790.317V250.527H796.292ZM796.292 244.552V250.527H790.317V244.552H796.292ZM790.317 256.502V262.477H784.342V256.502H790.317ZM784.342 256.502V262.477H778.367V256.502H784.342ZM784.342 250.527V256.502H778.367V250.527H784.342ZM778.367 250.527V256.502H772.392V250.527H778.367ZM778.367 256.502V262.477H772.392V256.502H778.367ZM778.367 262.477V268.452H772.392V262.477H778.367ZM772.392 262.477V268.452H766.417V262.477H772.392ZM766.417 262.477V268.452H760.442V262.477H766.417ZM760.442 262.477V268.452H754.467V262.477H760.442ZM754.467 262.477V268.452H748.491V262.477H754.467ZM748.491 262.477V268.452H742.516V262.477H748.491ZM742.516 262.477V268.452H736.541V262.477H742.516ZM736.541 262.477V268.452H730.566V262.477H736.541ZM742.516 256.502V262.477H736.541V256.502H742.516ZM748.491 256.502V262.477H742.516V256.502H748.491ZM754.467 256.502V262.477H748.491V256.502H754.467ZM760.442 256.502V262.477H754.467V256.502H760.442ZM766.417 256.502V262.477H760.442V256.502H766.417ZM772.392 256.502V262.477H766.417V256.502H772.392ZM772.392 250.527V256.502H766.417V250.527H772.392ZM766.417 250.527V256.502H760.442V250.527H766.417ZM760.442 250.527V256.502H754.467V250.527H760.442ZM754.467 250.527V256.502H748.491V250.527H754.467ZM748.491 250.527V256.502H742.516V250.527H748.491ZM742.516 250.527V256.502H736.541V250.527H742.516ZM736.541 256.502V262.477H730.566V256.502H736.541ZM730.566 256.502V262.477H724.591V256.502H730.566ZM724.591 256.502V262.477H718.616V256.502H724.591ZM724.591 250.527V256.502H718.616V250.527H724.591ZM718.616 250.527V256.502H712.641V250.527H718.616ZM718.616 244.552V250.527H712.641V244.552H718.616ZM724.591 244.552V250.527H718.616V244.552H724.591ZM730.566 244.552V250.527H724.591V244.552H730.566ZM736.541 244.552V250.527H730.566V244.552H736.541ZM742.516 244.552V250.527H736.541V244.552H742.516ZM748.491 244.552V250.527H742.516V244.552H748.491ZM754.467 244.552V250.527H748.491V244.552H754.467ZM760.442 244.552V250.527H754.467V244.552H760.442ZM766.417 244.552V250.527H760.442V244.552H766.417ZM736.541 250.527V256.502H730.566V250.527H736.541ZM730.566 250.527V256.502H724.591V250.527H730.566ZM802.267 196.751V202.726H796.292V196.751H802.267ZM796.292 196.751V202.726H790.317V196.751H796.292ZM790.317 196.751V202.726H784.342V196.751H790.317ZM784.342 196.751V202.726H778.367V196.751H784.342ZM778.367 196.751V202.726H772.392V196.751H778.367ZM802.267 202.726V208.701H796.292V202.726H802.267ZM790.317 202.726V208.701H784.342V202.726H790.317ZM784.342 202.726V208.701H778.367V202.726H784.342ZM772.392 202.726V208.701H766.417V202.726H772.392ZM766.417 202.726V208.701H760.442V202.726H766.417ZM760.442 202.726V208.701H754.467V202.726H760.442ZM754.467 202.726V208.701H748.491V202.726H754.467ZM748.491 202.726V208.701H742.516V202.726H748.491ZM742.516 202.726V208.701H736.541V202.726H742.516ZM778.367 202.726V208.701H772.392V202.726H778.367ZM796.292 202.726V208.701H790.317V202.726H796.292ZM802.267 208.701V214.676H796.292V208.701H802.267ZM796.292 208.701V214.676H790.317V208.701H796.292ZM790.317 208.701V214.676H784.342V208.701H790.317ZM784.342 208.701V214.676H778.367V208.701H784.342ZM778.367 208.701V214.676H772.392V208.701H778.367ZM772.392 208.701V214.676H766.417V208.701H772.392ZM766.417 208.701V214.676H760.442V208.701H766.417ZM760.442 208.701V214.676H754.467V208.701H760.442ZM754.467 208.701V214.676H748.491V208.701H754.467ZM748.491 208.701V214.676H742.516V208.701H748.491ZM742.516 208.701V214.676H736.541V208.701H742.516ZM742.516 214.676V220.651H736.541V214.676H742.516ZM748.491 214.676V220.651H742.516V214.676H748.491ZM754.467 214.676V220.651H748.491V214.676H754.467ZM766.417 214.676V220.651H760.442V214.676H766.417ZM772.392 214.676V220.651H766.417V214.676H772.392ZM778.367 214.676V220.651H772.392V214.676H778.367ZM784.342 214.676V220.651H778.367V214.676H784.342ZM790.317 214.676V220.651H784.342V214.676H790.317ZM796.292 214.676V220.651H790.317V214.676H796.292ZM802.267 214.676V220.651H796.292V214.676H802.267ZM760.442 214.676V220.651H754.467V214.676H760.442ZM903.949 178.826V184.801H897.974V178.826H903.949ZM897.974 178.826V184.801H891.999V178.826H897.974ZM891.999 178.826V184.801H886.024V178.826H891.999ZM886.024 178.826V184.801H880.049V178.826H886.024ZM880.049 172.851V178.826H874.074V172.851H880.049ZM886.024 172.851V178.826H880.049V172.851H886.024ZM891.999 172.851V178.826H886.024V172.851H891.999ZM897.974 172.851V178.826H891.999V172.851H897.974ZM903.949 172.851V178.826H897.974V172.851H903.949ZM903.949 166.875V172.851H897.974V166.875H903.949ZM897.974 166.875V172.851H891.999V166.875H897.974ZM891.999 166.875V172.851H886.024V166.875H891.999ZM886.024 166.875V172.851H880.049V166.875H886.024ZM880.049 166.875V172.851H874.074V166.875H880.049ZM891.999 160.9V166.875H886.024V160.9H891.999ZM897.974 160.9V166.875H891.999V160.9H897.974ZM886.024 160.9V166.875H880.049V160.9H886.024ZM886.024 154.925V160.9H880.049V154.925H886.024ZM880.049 154.925V160.9H874.074V154.925H880.049ZM880.049 160.9V166.875H874.074V160.9H880.049ZM874.074 160.9V166.875H868.099V160.9H874.074ZM874.074 154.925V160.9H868.099V154.925H874.074ZM874.074 166.875V172.851H868.099V166.875H874.074ZM868.099 166.875V172.851H862.123V166.875H868.099ZM868.099 172.851V178.826H862.123V172.851H868.099ZM874.074 172.851V178.826H868.099V172.851H874.074ZM862.123 172.851V178.826H856.148V172.851H862.123ZM862.123 166.875V172.851H856.148V166.875H862.123ZM862.123 160.9V166.875H856.148V160.9H862.123ZM862.123 154.925V160.9H856.148V154.925H862.123ZM868.099 154.925V160.9H862.123V154.925H868.099ZM868.099 160.9V166.875H862.123V160.9H868.099ZM856.148 154.925V160.9H850.173V154.925H856.148ZM850.173 154.925V160.9H844.198V154.925H850.173ZM844.198 154.925V160.9H838.223V154.925H844.198ZM844.198 160.9V166.875H838.223V160.9H844.198ZM844.198 166.875V172.851H838.223V166.875H844.198ZM844.198 172.851V178.826H838.223V172.851H844.198ZM850.173 172.851V178.826H844.198V172.851H850.173ZM856.148 172.851V178.826H850.173V172.851H856.148ZM856.148 166.875V172.851H850.173V166.875H856.148ZM856.148 160.9V166.875H850.173V160.9H856.148ZM850.173 160.9V166.875H844.198V160.9H850.173ZM850.173 166.875V172.851H844.198V166.875H850.173ZM838.223 166.875V172.851H832.248V166.875H838.223ZM838.223 160.9V166.875H832.248V160.9H838.223ZM832.248 160.9V166.875H826.273V160.9H832.248ZM832.248 166.875V172.851H826.273V166.875H832.248ZM826.273 166.875V172.851H820.298V166.875H826.273ZM826.273 172.851V178.826H820.298V172.851H826.273ZM826.273 178.826V184.801H820.298V178.826H826.273ZM832.248 178.826V184.801H826.273V178.826H832.248ZM832.248 172.851V178.826H826.273V172.851H832.248ZM838.223 172.851V178.826H832.248V172.851H838.223ZM838.223 178.826V184.801H832.248V178.826H838.223ZM844.198 178.826V184.801H838.223V178.826H844.198ZM850.173 178.826V184.801H844.198V178.826H850.173ZM820.298 178.826V184.801H814.323V178.826H820.298ZM820.298 184.801V190.776H814.323V184.801H820.298ZM820.298 190.776V196.751H814.323V190.776H820.298ZM820.298 232.602V238.577H814.323V232.602H820.298ZM826.273 232.602V238.577H820.298V232.602H826.273ZM826.273 238.577V244.552H820.298V238.577H826.273ZM820.298 238.577V244.552H814.323V238.577H820.298ZM832.248 238.577V244.552H826.273V238.577H832.248ZM838.223 238.577V244.552H832.248V238.577H838.223ZM844.198 238.577V244.552H838.223V238.577H844.198ZM850.173 238.577V244.552H844.198V238.577H850.173ZM844.198 232.602V238.577H838.223V232.602H844.198ZM844.198 190.776V196.751H838.223V190.776H844.198ZM844.198 184.801V190.776H838.223V184.801H844.198ZM838.223 184.801V190.776H832.248V184.801H838.223ZM832.248 184.801V190.776H826.273V184.801H832.248ZM826.273 184.801V190.776H820.298V184.801H826.273ZM826.273 190.776V196.751H820.298V190.776H826.273ZM832.248 232.602V238.577H826.273V232.602H832.248ZM838.223 232.602V238.577H832.248V232.602H838.223ZM832.248 190.776V196.751H826.273V190.776H832.248ZM838.223 190.776V196.751H832.248V190.776H838.223ZM886.024 226.627V232.602H880.049V226.627H886.024ZM886.024 232.602V238.577H880.049V232.602H886.024ZM891.999 232.602V238.577H886.024V232.602H891.999ZM897.974 232.602V238.577H891.999V232.602H897.974ZM903.949 232.602V238.577H897.974V232.602H903.949ZM909.924 232.602V238.577H903.949V232.602H909.924ZM909.924 226.627V232.602H903.949V226.627H909.924ZM903.949 226.627V232.602H897.974V226.627H903.949ZM897.974 226.627V232.602H891.999V226.627H897.974ZM891.999 226.627V232.602H886.024V226.627H891.999ZM909.924 238.577V244.552H903.949V238.577H909.924ZM903.949 238.577V244.552H897.974V238.577H903.949ZM897.974 238.577V244.552H891.999V238.577H897.974ZM891.999 238.577V244.552H886.024V238.577H891.999ZM886.024 238.577V244.552H880.049V238.577H886.024ZM880.049 238.577V244.552H874.074V238.577H880.049ZM880.049 244.552V250.527H874.074V244.552H880.049ZM886.024 244.552V250.527H880.049V244.552H886.024ZM891.999 244.552V250.527H886.024V244.552H891.999ZM897.974 244.552V250.527H891.999V244.552H897.974ZM897.974 250.527V256.502H891.999V250.527H897.974ZM903.949 250.527V256.502H897.974V250.527H903.949ZM903.949 244.552V250.527H897.974V244.552H903.949ZM897.974 256.502V262.477H891.999V256.502H897.974ZM891.999 256.502V262.477H886.024V256.502H891.999ZM891.999 250.527V256.502H886.024V250.527H891.999ZM886.024 250.527V256.502H880.049V250.527H886.024ZM886.024 256.502V262.477H880.049V256.502H886.024ZM886.024 262.477V268.452H880.049V262.477H886.024ZM880.049 262.477V268.452H874.074V262.477H880.049ZM874.074 262.477V268.452H868.099V262.477H874.074ZM868.099 262.477V268.452H862.123V262.477H868.099ZM862.123 262.477V268.452H856.148V262.477H862.123ZM856.148 262.477V268.452H850.173V262.477H856.148ZM850.173 262.477V268.452H844.198V262.477H850.173ZM844.198 262.477V268.452H838.223V262.477H844.198ZM850.173 256.502V262.477H844.198V256.502H850.173ZM856.148 256.502V262.477H850.173V256.502H856.148ZM862.123 256.502V262.477H856.148V256.502H862.123ZM868.099 256.502V262.477H862.123V256.502H868.099ZM874.074 256.502V262.477H868.099V256.502H874.074ZM880.049 256.502V262.477H874.074V256.502H880.049ZM880.049 250.527V256.502H874.074V250.527H880.049ZM874.074 250.527V256.502H868.099V250.527H874.074ZM868.099 250.527V256.502H862.123V250.527H868.099ZM862.123 250.527V256.502H856.148V250.527H862.123ZM856.148 250.527V256.502H850.173V250.527H856.148ZM850.173 250.527V256.502H844.198V250.527H850.173ZM844.198 256.502V262.477H838.223V256.502H844.198ZM838.223 256.502V262.477H832.248V256.502H838.223ZM832.248 256.502V262.477H826.273V256.502H832.248ZM832.248 250.527V256.502H826.273V250.527H832.248ZM826.273 250.527V256.502H820.298V250.527H826.273ZM826.273 244.552V250.527H820.298V244.552H826.273ZM832.248 244.552V250.527H826.273V244.552H832.248ZM838.223 244.552V250.527H832.248V244.552H838.223ZM844.198 244.552V250.527H838.223V244.552H844.198ZM850.173 244.552V250.527H844.198V244.552H850.173ZM856.148 244.552V250.527H850.173V244.552H856.148ZM862.123 244.552V250.527H856.148V244.552H862.123ZM868.099 244.552V250.527H862.123V244.552H868.099ZM874.074 244.552V250.527H868.099V244.552H874.074ZM844.198 250.527V256.502H838.223V250.527H844.198ZM838.223 250.527V256.502H832.248V250.527H838.223ZM897.974 214.676V220.651H891.999V214.676H897.974ZM909.924 220.651V226.627H903.949V220.651H909.924ZM903.949 220.651V226.627H897.974V220.651H903.949ZM897.974 220.651V226.627H891.999V220.651H897.974ZM891.999 220.651V226.627H886.024V220.651H891.999ZM891.999 214.676V220.651H886.024V214.676H891.999ZM886.024 214.676V220.651H880.049V214.676H886.024ZM886.024 220.651V226.627H880.049V220.651H886.024ZM850.173 190.776V196.751H844.198V190.776H850.173ZM826.273 196.751V202.726H820.298V196.751H826.273ZM826.273 202.726V208.701H820.298V202.726H826.273ZM832.248 202.726V208.701H826.273V202.726H832.248ZM832.248 208.701V214.676H826.273V208.701H832.248ZM838.223 208.701V214.676H832.248V208.701H838.223ZM844.198 214.676V220.651H838.223V214.676H844.198ZM844.198 208.701V214.676H838.223V208.701H844.198ZM844.198 202.726V208.701H838.223V202.726H844.198ZM844.198 196.751V202.726H838.223V196.751H844.198ZM838.223 196.751V202.726H832.248V196.751H838.223ZM838.223 202.726V208.701H832.248V202.726H838.223ZM832.248 196.751V202.726H826.273V196.751H832.248ZM850.173 214.676V220.651H844.198V214.676H850.173ZM856.148 214.676V220.651H850.173V214.676H856.148ZM862.123 214.676V220.651H856.148V214.676H862.123ZM868.099 214.676V220.651H862.123V214.676H868.099ZM868.099 208.701V214.676H862.123V208.701H868.099ZM862.123 208.701V214.676H856.148V208.701H862.123ZM856.148 208.701V214.676H850.173V208.701H856.148ZM850.173 208.701V214.676H844.198V208.701H850.173ZM850.173 202.726V208.701H844.198V202.726H850.173ZM850.173 196.751V202.726H844.198V196.751H850.173ZM856.148 196.751V202.726H850.173V196.751H856.148ZM862.123 196.751V202.726H856.148V196.751H862.123ZM868.099 196.751V202.726H862.123V196.751H868.099ZM868.099 202.726V208.701H862.123V202.726H868.099ZM862.123 202.726V208.701H856.148V202.726H862.123ZM856.148 202.726V208.701H850.173V202.726H856.148ZM874.074 196.751V202.726H868.099V196.751H874.074ZM880.049 196.751V202.726H874.074V196.751H880.049ZM880.049 202.726V208.701H874.074V202.726H880.049ZM880.049 208.701V214.676H874.074V208.701H880.049ZM880.049 214.676V220.651H874.074V214.676H880.049ZM874.074 214.676V220.651H868.099V214.676H874.074ZM874.074 208.701V214.676H868.099V208.701H874.074ZM874.074 202.726V208.701H868.099V202.726H874.074ZM880.049 220.651V226.627H874.074V220.651H880.049ZM886.024 196.751V202.726H880.049V196.751H886.024ZM903.949 214.676V220.651H897.974V214.676H903.949ZM903.949 208.701V214.676H897.974V208.701H903.949ZM897.974 202.726V208.701H891.999V202.726H897.974ZM891.999 202.726V208.701H886.024V202.726H891.999ZM886.024 202.726V208.701H880.049V202.726H886.024ZM886.024 208.701V214.676H880.049V208.701H886.024ZM891.999 208.701V214.676H886.024V208.701H891.999ZM897.974 208.701V214.676H891.999V208.701H897.974ZM880.049 178.826V184.801H874.074V178.826H880.049ZM957.83 131.025V137H951.855V131.025H957.83ZM957.83 137V142.975H951.855V137H957.83ZM957.83 142.975V148.95H951.855V142.975H957.83ZM957.83 148.95V154.925H951.855V148.95H957.83ZM957.83 154.925V160.9H951.855V154.925H957.83ZM957.83 160.9V166.875H951.855V160.9H957.83ZM957.83 166.875V172.851H951.855V166.875H957.83ZM957.83 172.851V178.826H951.855V172.851H957.83ZM963.805 172.851V178.826H957.83V172.851H963.805ZM969.78 172.851V178.826H963.805V172.851H969.78ZM975.756 172.851V178.826H969.78V172.851H975.756ZM981.731 172.851V178.826H975.756V172.851H981.731ZM957.83 184.801V190.776H951.855V184.801H957.83ZM951.855 184.801V190.776H945.88V184.801H951.855ZM951.855 178.826V184.801H945.88V178.826H951.855ZM957.83 178.826V184.801H951.855V178.826H957.83ZM957.83 190.776V196.751H951.855V190.776H957.83ZM951.855 190.776V196.751H945.88V190.776H951.855ZM945.88 190.776V196.751H939.905V190.776H945.88ZM939.905 190.776V196.751H933.93V190.776H939.905ZM933.93 190.776V196.751H927.955V190.776H933.93ZM921.98 172.851V178.826H916.004V172.851H921.98ZM927.955 172.851V178.826H921.98V172.851H927.955ZM933.93 172.851V178.826H927.955V172.851H933.93ZM939.905 172.851V178.826H933.93V172.851H939.905ZM945.88 172.851V178.826H939.905V172.851H945.88ZM951.855 172.851V178.826H945.88V172.851H951.855ZM945.88 184.801V190.776H939.905V184.801H945.88ZM945.88 178.826V184.801H939.905V178.826H945.88ZM939.905 178.826V184.801H933.93V178.826H939.905ZM933.93 178.826V184.801H927.955V178.826H933.93ZM933.93 184.801V190.776H927.955V184.801H933.93ZM939.905 184.801V190.776H933.93V184.801H939.905ZM951.855 137V142.975H945.88V137H951.855ZM951.855 142.975V148.95H945.88V142.975H951.855ZM945.88 142.975V148.95H939.905V142.975H945.88ZM945.88 148.95V154.925H939.905V148.95H945.88ZM945.88 154.925V160.9H939.905V154.925H945.88ZM939.905 148.95V154.925H933.93V148.95H939.905ZM939.905 154.925V160.9H933.93V154.925H939.905ZM933.93 154.925V160.9H927.955V154.925H933.93ZM933.93 160.9V166.875H927.955V160.9H933.93ZM933.93 166.875V172.851H927.955V166.875H933.93ZM945.88 166.875V172.851H939.905V166.875H945.88ZM951.855 166.875V172.851H945.88V166.875H951.855ZM951.855 160.9V166.875H945.88V160.9H951.855ZM951.855 154.925V160.9H945.88V154.925H951.855ZM951.855 148.95V154.925H945.88V148.95H951.855ZM945.88 160.9V166.875H939.905V160.9H945.88ZM939.905 166.875V172.851H933.93V166.875H939.905ZM939.905 160.9V166.875H933.93V160.9H939.905ZM981.731 244.552V250.527H975.756V244.552H981.731ZM981.731 250.527V256.502H975.756V250.527H981.731ZM981.731 262.477V268.452H975.756V262.477H981.731ZM975.756 262.477V268.452H969.78V262.477H975.756ZM969.78 262.477V268.452H963.805V262.477H969.78ZM963.805 262.477V268.452H957.83V262.477H963.805ZM957.83 262.477V268.452H951.855V262.477H957.83ZM957.83 256.502V262.477H951.855V256.502H957.83ZM951.855 256.502V262.477H945.88V256.502H951.855ZM945.88 256.502V262.477H939.905V256.502H945.88ZM945.88 250.527V256.502H939.905V250.527H945.88ZM939.905 250.527V256.502H933.93V250.527H939.905ZM939.905 244.552V250.527H933.93V244.552H939.905ZM939.905 238.577V244.552H933.93V238.577H939.905ZM933.93 238.577V244.552H927.955V238.577H933.93ZM933.93 232.602V238.577H927.955V232.602H933.93ZM933.93 226.627V232.602H927.955V226.627H933.93ZM933.93 220.651V226.627H927.955V220.651H933.93ZM933.93 214.676V220.651H927.955V214.676H933.93ZM933.93 208.701V214.676H927.955V208.701H933.93ZM933.93 202.726V208.701H927.955V202.726H933.93ZM933.93 196.751V202.726H927.955V196.751H933.93ZM939.905 196.751V202.726H933.93V196.751H939.905ZM945.88 196.751V202.726H939.905V196.751H945.88ZM951.855 196.751V202.726H945.88V196.751H951.855ZM957.83 196.751V202.726H951.855V196.751H957.83ZM957.83 202.726V208.701H951.855V202.726H957.83ZM957.83 208.701V214.676H951.855V208.701H957.83ZM957.83 214.676V220.651H951.855V214.676H957.83ZM957.83 220.651V226.627H951.855V220.651H957.83ZM957.83 226.627V232.602H951.855V226.627H957.83ZM957.83 232.602V238.577H951.855V232.602H957.83ZM957.83 238.577V244.552H951.855V238.577H957.83ZM963.805 238.577V244.552H957.83V238.577H963.805ZM963.805 244.552V250.527H957.83V244.552H963.805ZM969.78 244.552V250.527H963.805V244.552H969.78ZM969.78 250.527V256.502H963.805V250.527H969.78ZM975.756 250.527V256.502H969.78V250.527H975.756ZM975.756 244.552V250.527H969.78V244.552H975.756ZM981.731 256.502V262.477H975.756V256.502H981.731ZM975.756 256.502V262.477H969.78V256.502H975.756ZM969.78 256.502V262.477H963.805V256.502H969.78ZM963.805 256.502V262.477H957.83V256.502H963.805ZM963.805 250.527V256.502H957.83V250.527H963.805ZM957.83 250.527V256.502H951.855V250.527H957.83ZM957.83 244.552V250.527H951.855V244.552H957.83ZM951.855 244.552V250.527H945.88V244.552H951.855ZM951.855 250.527V256.502H945.88V250.527H951.855ZM945.88 244.552V250.527H939.905V244.552H945.88ZM951.855 238.577V244.552H945.88V238.577H951.855ZM951.855 232.602V238.577H945.88V232.602H951.855ZM945.88 238.577V244.552H939.905V238.577H945.88ZM945.88 232.602V238.577H939.905V232.602H945.88ZM951.855 226.627V232.602H945.88V226.627H951.855ZM951.855 220.651V226.627H945.88V220.651H951.855ZM951.855 214.676V220.651H945.88V214.676H951.855ZM951.855 208.701V214.676H945.88V208.701H951.855ZM951.855 202.726V208.701H945.88V202.726H951.855ZM945.88 202.726V208.701H939.905V202.726H945.88ZM939.905 202.726V208.701H933.93V202.726H939.905ZM939.905 208.701V214.676H933.93V208.701H939.905ZM939.905 214.676V220.651H933.93V214.676H939.905ZM939.905 220.651V226.627H933.93V220.651H939.905ZM939.905 226.627V232.602H933.93V226.627H939.905ZM939.905 232.602V238.577H933.93V232.602H939.905ZM945.88 226.627V232.602H939.905V226.627H945.88ZM945.88 220.651V226.627H939.905V220.651H945.88ZM945.88 214.676V220.651H939.905V214.676H945.88ZM945.88 208.701V214.676H939.905V208.701H945.88ZM981.731 160.9V166.875H975.756V160.9H981.731ZM975.756 160.9V166.875H969.78V160.9H975.756ZM975.756 166.875V172.851H969.78V166.875H975.756ZM981.731 166.875V172.851H975.756V166.875H981.731ZM969.78 166.875V172.851H963.805V166.875H969.78ZM963.805 166.875V172.851H957.83V166.875H963.805ZM963.805 160.9V166.875H957.83V160.9H963.805ZM969.78 160.9V166.875H963.805V160.9H969.78ZM933.93 148.95V154.925H927.955V148.95H933.93ZM939.905 142.975V148.95H933.93V142.975H939.905ZM945.88 137V142.975H939.905V137H945.88ZM951.855 131.025V137H945.88V131.025H951.855ZM927.955 160.9V166.875H921.98V160.9H927.955ZM927.955 166.875V172.851H921.98V166.875H927.955ZM921.98 166.875V172.851H916.004V166.875H921.98ZM921.98 160.9V166.875H916.004V160.9H921.98ZM957.83 125.05V131.025H951.855V125.05H957.83ZM921.98 178.826V184.801H916.004V178.826H921.98ZM927.955 178.826V184.801H921.98V178.826H927.955ZM963.805 178.826V184.801H957.83V178.826H963.805ZM969.78 178.826V184.801H963.805V178.826H969.78ZM975.756 178.826V184.801H969.78V178.826H975.756ZM981.731 178.826V184.801H975.756V178.826H981.731Z" fill="#FAF9F6"/>
</svg>
